<mxfile host="app.diagrams.net" agent="Mozilla/5.0 (Windows NT 10.0; Win64; x64) AppleWebKit/537.36 (KHTML, like Gecko) Chrome/129.0.0.0 Safari/537.36" version="24.7.17">
  <diagram name="Page-1" id="Ybv_6fyQBnr24Chx0Xx0">
    <mxGraphModel dx="4884" dy="2956" grid="1" gridSize="10" guides="1" tooltips="1" connect="1" arrows="1" fold="1" page="1" pageScale="1" pageWidth="850" pageHeight="1100" math="0" shadow="0">
      <root>
        <mxCell id="0" />
        <mxCell id="1" parent="0" />
        <mxCell id="ixC7fo_xBta1fvAIzJk8-229" value="" style="rounded=0;whiteSpace=wrap;html=1;labelBorderColor=none;fillColor=#f8cecc;strokeWidth=2;strokeColor=#b85450;movable=0;resizable=0;rotatable=0;deletable=0;editable=0;locked=1;connectable=0;fillStyle=auto;" vertex="1" parent="1">
          <mxGeometry x="1440" y="40" width="1000" height="1530" as="geometry" />
        </mxCell>
        <mxCell id="biSiaxHi5aM3qk9tD5Wr-33" value="" style="rounded=0;whiteSpace=wrap;html=1;labelBorderColor=none;fillColor=#d5e8d4;strokeWidth=2;strokeColor=#82b366;movable=0;resizable=0;rotatable=0;deletable=0;editable=0;locked=1;connectable=0;" parent="1" vertex="1">
          <mxGeometry x="40" y="40" width="440" height="540" as="geometry" />
        </mxCell>
        <mxCell id="biSiaxHi5aM3qk9tD5Wr-14" value="" style="edgeStyle=orthogonalEdgeStyle;rounded=0;orthogonalLoop=1;jettySize=auto;html=1;entryX=0.5;entryY=0;entryDx=0;entryDy=0;" parent="1" source="biSiaxHi5aM3qk9tD5Wr-11" target="biSiaxHi5aM3qk9tD5Wr-15" edge="1">
          <mxGeometry relative="1" as="geometry">
            <mxPoint x="140" y="180" as="targetPoint" />
          </mxGeometry>
        </mxCell>
        <mxCell id="biSiaxHi5aM3qk9tD5Wr-11" value="START" style="ellipse;whiteSpace=wrap;html=1;" parent="1" vertex="1">
          <mxGeometry x="80" y="60" width="120" height="80" as="geometry" />
        </mxCell>
        <mxCell id="biSiaxHi5aM3qk9tD5Wr-20" value="" style="edgeStyle=orthogonalEdgeStyle;rounded=0;orthogonalLoop=1;jettySize=auto;html=1;" parent="1" source="biSiaxHi5aM3qk9tD5Wr-15" target="biSiaxHi5aM3qk9tD5Wr-17" edge="1">
          <mxGeometry relative="1" as="geometry" />
        </mxCell>
        <mxCell id="biSiaxHi5aM3qk9tD5Wr-26" value="TRUE" style="edgeLabel;html=1;align=center;verticalAlign=middle;resizable=0;points=[];labelBorderColor=default;" parent="biSiaxHi5aM3qk9tD5Wr-20" vertex="1" connectable="0">
          <mxGeometry x="-0.075" relative="1" as="geometry">
            <mxPoint as="offset" />
          </mxGeometry>
        </mxCell>
        <mxCell id="biSiaxHi5aM3qk9tD5Wr-23" value="" style="edgeStyle=orthogonalEdgeStyle;rounded=0;orthogonalLoop=1;jettySize=auto;html=1;" parent="1" source="biSiaxHi5aM3qk9tD5Wr-15" target="biSiaxHi5aM3qk9tD5Wr-22" edge="1">
          <mxGeometry relative="1" as="geometry" />
        </mxCell>
        <mxCell id="biSiaxHi5aM3qk9tD5Wr-27" value="FALSE" style="edgeLabel;html=1;align=center;verticalAlign=middle;resizable=0;points=[];labelBorderColor=default;" parent="biSiaxHi5aM3qk9tD5Wr-23" vertex="1" connectable="0">
          <mxGeometry x="-0.1" y="1" relative="1" as="geometry">
            <mxPoint as="offset" />
          </mxGeometry>
        </mxCell>
        <mxCell id="biSiaxHi5aM3qk9tD5Wr-15" value="&lt;div&gt;Is TASK_NUM&lt;/div&gt;&lt;div&gt;set to 1?&lt;/div&gt;" style="rhombus;whiteSpace=wrap;html=1;" parent="1" vertex="1">
          <mxGeometry x="60" y="185" width="160" height="80" as="geometry" />
        </mxCell>
        <mxCell id="biSiaxHi5aM3qk9tD5Wr-17" value="Run Task 1" style="shape=process;whiteSpace=wrap;html=1;backgroundOutline=1;" parent="1" vertex="1">
          <mxGeometry x="300" y="195" width="160" height="60" as="geometry" />
        </mxCell>
        <mxCell id="biSiaxHi5aM3qk9tD5Wr-29" value="" style="edgeStyle=orthogonalEdgeStyle;rounded=0;orthogonalLoop=1;jettySize=auto;html=1;" parent="1" source="biSiaxHi5aM3qk9tD5Wr-22" target="biSiaxHi5aM3qk9tD5Wr-28" edge="1">
          <mxGeometry relative="1" as="geometry" />
        </mxCell>
        <mxCell id="mMBPz4RIToR52idvzMzK-1" value="TRUE" style="edgeLabel;html=1;align=center;verticalAlign=middle;resizable=0;points=[];labelBorderColor=default;" parent="biSiaxHi5aM3qk9tD5Wr-29" vertex="1" connectable="0">
          <mxGeometry x="-0.1417" relative="1" as="geometry">
            <mxPoint x="6" as="offset" />
          </mxGeometry>
        </mxCell>
        <mxCell id="biSiaxHi5aM3qk9tD5Wr-31" value="" style="edgeStyle=orthogonalEdgeStyle;rounded=0;orthogonalLoop=1;jettySize=auto;html=1;" parent="1" source="biSiaxHi5aM3qk9tD5Wr-22" target="biSiaxHi5aM3qk9tD5Wr-30" edge="1">
          <mxGeometry relative="1" as="geometry" />
        </mxCell>
        <mxCell id="biSiaxHi5aM3qk9tD5Wr-32" value="FALSE" style="edgeLabel;html=1;align=center;verticalAlign=middle;resizable=0;points=[];labelBorderColor=default;" parent="biSiaxHi5aM3qk9tD5Wr-31" vertex="1" connectable="0">
          <mxGeometry y="-1" relative="1" as="geometry">
            <mxPoint as="offset" />
          </mxGeometry>
        </mxCell>
        <mxCell id="biSiaxHi5aM3qk9tD5Wr-22" value="&lt;div&gt;Is TASK_NUM&lt;/div&gt;&lt;div&gt;set to 2?&lt;/div&gt;" style="rhombus;whiteSpace=wrap;html=1;" parent="1" vertex="1">
          <mxGeometry x="60" y="325" width="160" height="80" as="geometry" />
        </mxCell>
        <mxCell id="biSiaxHi5aM3qk9tD5Wr-28" value="Run Task 2" style="shape=process;whiteSpace=wrap;html=1;backgroundOutline=1;" parent="1" vertex="1">
          <mxGeometry x="300" y="335" width="160" height="60" as="geometry" />
        </mxCell>
        <mxCell id="biSiaxHi5aM3qk9tD5Wr-30" value="END" style="ellipse;whiteSpace=wrap;html=1;" parent="1" vertex="1">
          <mxGeometry x="80" y="465" width="120" height="80" as="geometry" />
        </mxCell>
        <mxCell id="biSiaxHi5aM3qk9tD5Wr-34" value="Main Logic" style="text;html=1;align=center;verticalAlign=middle;resizable=0;points=[];autosize=1;strokeColor=default;fillColor=default;movable=0;rotatable=0;deletable=0;editable=0;locked=1;connectable=0;" parent="1" vertex="1">
          <mxGeometry x="40" y="10" width="440" height="30" as="geometry" />
        </mxCell>
        <mxCell id="a6NfM2UBTa-aN9WjV6J4-68" value="" style="rounded=0;whiteSpace=wrap;html=1;labelBorderColor=none;fillColor=#ffe6cc;strokeWidth=2;strokeColor=#d79b00;movable=0;resizable=0;rotatable=0;deletable=0;editable=0;locked=1;connectable=0;fillStyle=auto;" parent="1" vertex="1">
          <mxGeometry x="520" y="40" width="880" height="1240" as="geometry" />
        </mxCell>
        <mxCell id="a6NfM2UBTa-aN9WjV6J4-83" value="" style="edgeStyle=orthogonalEdgeStyle;rounded=0;orthogonalLoop=1;jettySize=auto;html=1;entryX=0.5;entryY=0;entryDx=0;entryDy=0;" parent="1" source="a6NfM2UBTa-aN9WjV6J4-70" target="ixC7fo_xBta1fvAIzJk8-253" edge="1">
          <mxGeometry relative="1" as="geometry">
            <mxPoint x="650" y="195" as="targetPoint" />
          </mxGeometry>
        </mxCell>
        <mxCell id="a6NfM2UBTa-aN9WjV6J4-70" value="Run Task 1" style="ellipse;whiteSpace=wrap;html=1;" parent="1" vertex="1">
          <mxGeometry x="590" y="80" width="120" height="80" as="geometry" />
        </mxCell>
        <mxCell id="mMBPz4RIToR52idvzMzK-47" value="Lab Task Logic" style="text;html=1;align=center;verticalAlign=middle;resizable=0;points=[];autosize=1;strokeColor=default;fillColor=default;movable=0;rotatable=0;deletable=0;editable=0;locked=1;connectable=0;" parent="1" vertex="1">
          <mxGeometry x="520" y="10" width="880" height="30" as="geometry" />
        </mxCell>
        <mxCell id="ixC7fo_xBta1fvAIzJk8-247" value="" style="edgeStyle=orthogonalEdgeStyle;rounded=0;orthogonalLoop=1;jettySize=auto;html=1;exitX=0.5;exitY=1;exitDx=0;exitDy=0;" edge="1" parent="1" source="ixC7fo_xBta1fvAIzJk8-253" target="ixC7fo_xBta1fvAIzJk8-246">
          <mxGeometry relative="1" as="geometry">
            <mxPoint x="650" y="255" as="sourcePoint" />
          </mxGeometry>
        </mxCell>
        <mxCell id="ixC7fo_xBta1fvAIzJk8-228" value="" style="rounded=0;whiteSpace=wrap;html=1;labelBorderColor=none;fillColor=#dae8fc;strokeWidth=2;strokeColor=#6c8ebf;movable=0;resizable=0;rotatable=0;deletable=0;editable=0;locked=1;connectable=0;fillStyle=auto;" vertex="1" parent="1">
          <mxGeometry x="2480" y="40" width="1400" height="1310" as="geometry" />
        </mxCell>
        <mxCell id="ixC7fo_xBta1fvAIzJk8-230" value="LCD Driver" style="text;html=1;align=center;verticalAlign=middle;resizable=1;points=[];autosize=1;strokeColor=default;fillColor=default;movable=1;rotatable=1;deletable=1;editable=1;locked=0;connectable=1;" vertex="1" parent="1">
          <mxGeometry x="2480" y="10" width="1400" height="30" as="geometry" />
        </mxCell>
        <mxCell id="ixC7fo_xBta1fvAIzJk8-519" value="" style="edgeStyle=orthogonalEdgeStyle;rounded=0;orthogonalLoop=1;jettySize=auto;html=1;" edge="1" parent="1" source="ixC7fo_xBta1fvAIzJk8-231" target="ixC7fo_xBta1fvAIzJk8-518">
          <mxGeometry relative="1" as="geometry" />
        </mxCell>
        <mxCell id="ixC7fo_xBta1fvAIzJk8-231" value="Initialize LCD" style="ellipse;whiteSpace=wrap;html=1;" vertex="1" parent="1">
          <mxGeometry x="2520" y="80" width="120" height="80" as="geometry" />
        </mxCell>
        <mxCell id="ixC7fo_xBta1fvAIzJk8-388" value="" style="edgeStyle=orthogonalEdgeStyle;rounded=0;orthogonalLoop=1;jettySize=auto;html=1;" edge="1" parent="1" source="ixC7fo_xBta1fvAIzJk8-232" target="ixC7fo_xBta1fvAIzJk8-367">
          <mxGeometry relative="1" as="geometry" />
        </mxCell>
        <mxCell id="ixC7fo_xBta1fvAIzJk8-232" value="Setup LCD Pins" style="ellipse;whiteSpace=wrap;html=1;" vertex="1" parent="1">
          <mxGeometry x="2760" y="80" width="120" height="80" as="geometry" />
        </mxCell>
        <mxCell id="ixC7fo_xBta1fvAIzJk8-533" value="" style="edgeStyle=orthogonalEdgeStyle;rounded=0;orthogonalLoop=1;jettySize=auto;html=1;" edge="1" parent="1" source="ixC7fo_xBta1fvAIzJk8-233" target="ixC7fo_xBta1fvAIzJk8-531">
          <mxGeometry relative="1" as="geometry" />
        </mxCell>
        <mxCell id="ixC7fo_xBta1fvAIzJk8-233" value="Write 4 bits to LCD&lt;div&gt;in 4-bit mode&lt;/div&gt;" style="ellipse;whiteSpace=wrap;html=1;" vertex="1" parent="1">
          <mxGeometry x="3000" y="80" width="120" height="80" as="geometry" />
        </mxCell>
        <mxCell id="ixC7fo_xBta1fvAIzJk8-551" value="" style="edgeStyle=orthogonalEdgeStyle;rounded=0;orthogonalLoop=1;jettySize=auto;html=1;" edge="1" parent="1" source="ixC7fo_xBta1fvAIzJk8-234" target="ixC7fo_xBta1fvAIzJk8-549">
          <mxGeometry relative="1" as="geometry" />
        </mxCell>
        <mxCell id="ixC7fo_xBta1fvAIzJk8-234" value="Write 8 bits to LCD&lt;div&gt;in 4-bit mode&lt;/div&gt;" style="ellipse;whiteSpace=wrap;html=1;" vertex="1" parent="1">
          <mxGeometry x="3240" y="80" width="120" height="80" as="geometry" />
        </mxCell>
        <mxCell id="ixC7fo_xBta1fvAIzJk8-563" value="" style="edgeStyle=orthogonalEdgeStyle;rounded=0;orthogonalLoop=1;jettySize=auto;html=1;" edge="1" parent="1" source="ixC7fo_xBta1fvAIzJk8-235" target="ixC7fo_xBta1fvAIzJk8-562">
          <mxGeometry relative="1" as="geometry" />
        </mxCell>
        <mxCell id="ixC7fo_xBta1fvAIzJk8-235" value="Send 4-bit&lt;div&gt;command&amp;nbsp;&lt;span style=&quot;background-color: initial;&quot;&gt;to LCD&lt;/span&gt;&lt;/div&gt;" style="ellipse;whiteSpace=wrap;html=1;" vertex="1" parent="1">
          <mxGeometry x="3480" y="80" width="120" height="80" as="geometry" />
        </mxCell>
        <mxCell id="ixC7fo_xBta1fvAIzJk8-568" value="" style="edgeStyle=orthogonalEdgeStyle;rounded=0;orthogonalLoop=1;jettySize=auto;html=1;" edge="1" parent="1" source="ixC7fo_xBta1fvAIzJk8-236" target="ixC7fo_xBta1fvAIzJk8-567">
          <mxGeometry relative="1" as="geometry" />
        </mxCell>
        <mxCell id="ixC7fo_xBta1fvAIzJk8-236" value="Send 4-bit&lt;div&gt;data&amp;nbsp;&lt;span style=&quot;background-color: initial;&quot;&gt;to LCD&lt;/span&gt;&lt;/div&gt;" style="ellipse;whiteSpace=wrap;html=1;" vertex="1" parent="1">
          <mxGeometry x="3720" y="80" width="120" height="80" as="geometry" />
        </mxCell>
        <mxCell id="ixC7fo_xBta1fvAIzJk8-237" value="Keypad Driver" style="text;html=1;align=center;verticalAlign=middle;resizable=1;points=[];autosize=1;strokeColor=default;fillColor=default;movable=1;rotatable=1;deletable=1;editable=1;locked=0;connectable=1;" vertex="1" parent="1">
          <mxGeometry x="1440" y="10" width="1000" height="30" as="geometry" />
        </mxCell>
        <mxCell id="ixC7fo_xBta1fvAIzJk8-462" value="" style="edgeStyle=orthogonalEdgeStyle;rounded=0;orthogonalLoop=1;jettySize=auto;html=1;" edge="1" parent="1" source="ixC7fo_xBta1fvAIzJk8-238" target="ixC7fo_xBta1fvAIzJk8-461">
          <mxGeometry relative="1" as="geometry" />
        </mxCell>
        <mxCell id="ixC7fo_xBta1fvAIzJk8-238" value="Initialize Keypad" style="ellipse;whiteSpace=wrap;html=1;" vertex="1" parent="1">
          <mxGeometry x="1480" y="80" width="120" height="80" as="geometry" />
        </mxCell>
        <mxCell id="ixC7fo_xBta1fvAIzJk8-435" value="" style="edgeStyle=orthogonalEdgeStyle;rounded=0;orthogonalLoop=1;jettySize=auto;html=1;" edge="1" parent="1" source="ixC7fo_xBta1fvAIzJk8-239" target="ixC7fo_xBta1fvAIzJk8-390">
          <mxGeometry relative="1" as="geometry" />
        </mxCell>
        <mxCell id="ixC7fo_xBta1fvAIzJk8-239" value="Setup Keypad&lt;div&gt;&lt;span style=&quot;background-color: initial;&quot;&gt;Column Pins&lt;/span&gt;&lt;/div&gt;" style="ellipse;whiteSpace=wrap;html=1;" vertex="1" parent="1">
          <mxGeometry x="1680" y="80" width="120" height="80" as="geometry" />
        </mxCell>
        <mxCell id="ixC7fo_xBta1fvAIzJk8-460" value="" style="edgeStyle=orthogonalEdgeStyle;rounded=0;orthogonalLoop=1;jettySize=auto;html=1;" edge="1" parent="1" source="ixC7fo_xBta1fvAIzJk8-240" target="ixC7fo_xBta1fvAIzJk8-437">
          <mxGeometry relative="1" as="geometry" />
        </mxCell>
        <mxCell id="ixC7fo_xBta1fvAIzJk8-240" value="Setup Keypad&lt;div&gt;Row Pins&lt;br&gt;&lt;/div&gt;" style="ellipse;whiteSpace=wrap;html=1;" vertex="1" parent="1">
          <mxGeometry x="1880" y="80" width="120" height="80" as="geometry" />
        </mxCell>
        <mxCell id="ixC7fo_xBta1fvAIzJk8-468" value="" style="edgeStyle=orthogonalEdgeStyle;rounded=0;orthogonalLoop=1;jettySize=auto;html=1;" edge="1" parent="1" source="ixC7fo_xBta1fvAIzJk8-241" target="ixC7fo_xBta1fvAIzJk8-467">
          <mxGeometry relative="1" as="geometry" />
        </mxCell>
        <mxCell id="ixC7fo_xBta1fvAIzJk8-241" value="Listen for Keypress" style="ellipse;whiteSpace=wrap;html=1;" vertex="1" parent="1">
          <mxGeometry x="2106.87" y="80" width="120" height="80" as="geometry" />
        </mxCell>
        <mxCell id="ixC7fo_xBta1fvAIzJk8-249" value="" style="edgeStyle=orthogonalEdgeStyle;rounded=0;orthogonalLoop=1;jettySize=auto;html=1;" edge="1" parent="1" source="ixC7fo_xBta1fvAIzJk8-246" target="ixC7fo_xBta1fvAIzJk8-248">
          <mxGeometry relative="1" as="geometry" />
        </mxCell>
        <mxCell id="ixC7fo_xBta1fvAIzJk8-246" value="Send command to clear the Screen" style="whiteSpace=wrap;html=1;" vertex="1" parent="1">
          <mxGeometry x="590" y="310" width="120" height="60" as="geometry" />
        </mxCell>
        <mxCell id="ixC7fo_xBta1fvAIzJk8-251" value="" style="edgeStyle=orthogonalEdgeStyle;rounded=0;orthogonalLoop=1;jettySize=auto;html=1;" edge="1" parent="1" source="ixC7fo_xBta1fvAIzJk8-248" target="ixC7fo_xBta1fvAIzJk8-250">
          <mxGeometry relative="1" as="geometry" />
        </mxCell>
        <mxCell id="ixC7fo_xBta1fvAIzJk8-248" value="Send command to set&lt;div&gt;cursor position to beginning of first line&lt;/div&gt;" style="whiteSpace=wrap;html=1;" vertex="1" parent="1">
          <mxGeometry x="590" y="415" width="120" height="60" as="geometry" />
        </mxCell>
        <mxCell id="ixC7fo_xBta1fvAIzJk8-256" value="" style="edgeStyle=orthogonalEdgeStyle;rounded=0;orthogonalLoop=1;jettySize=auto;html=1;" edge="1" parent="1" source="ixC7fo_xBta1fvAIzJk8-250" target="ixC7fo_xBta1fvAIzJk8-254">
          <mxGeometry relative="1" as="geometry" />
        </mxCell>
        <mxCell id="ixC7fo_xBta1fvAIzJk8-250" value="Delay for 500 ms" style="whiteSpace=wrap;html=1;" vertex="1" parent="1">
          <mxGeometry x="590" y="520" width="120" height="60" as="geometry" />
        </mxCell>
        <mxCell id="ixC7fo_xBta1fvAIzJk8-253" value="Initialize the LCD" style="whiteSpace=wrap;html=1;" vertex="1" parent="1">
          <mxGeometry x="590" y="205" width="120" height="60" as="geometry" />
        </mxCell>
        <mxCell id="ixC7fo_xBta1fvAIzJk8-257" value="" style="edgeStyle=orthogonalEdgeStyle;rounded=0;orthogonalLoop=1;jettySize=auto;html=1;" edge="1" parent="1" source="ixC7fo_xBta1fvAIzJk8-254" target="ixC7fo_xBta1fvAIzJk8-255">
          <mxGeometry relative="1" as="geometry" />
        </mxCell>
        <mxCell id="ixC7fo_xBta1fvAIzJk8-254" value="Display the string&lt;br&gt;&quot;HELLO WORLD&quot;" style="whiteSpace=wrap;html=1;" vertex="1" parent="1">
          <mxGeometry x="590" y="630" width="120" height="60" as="geometry" />
        </mxCell>
        <mxCell id="ixC7fo_xBta1fvAIzJk8-255" value="END" style="ellipse;whiteSpace=wrap;html=1;" vertex="1" parent="1">
          <mxGeometry x="590" y="740" width="120" height="80" as="geometry" />
        </mxCell>
        <mxCell id="ixC7fo_xBta1fvAIzJk8-259" value="" style="edgeStyle=orthogonalEdgeStyle;rounded=0;orthogonalLoop=1;jettySize=auto;html=1;" edge="1" parent="1" source="ixC7fo_xBta1fvAIzJk8-260" target="ixC7fo_xBta1fvAIzJk8-262">
          <mxGeometry relative="1" as="geometry" />
        </mxCell>
        <mxCell id="ixC7fo_xBta1fvAIzJk8-260" value="Send command to clear the Screen" style="whiteSpace=wrap;html=1;" vertex="1" parent="1">
          <mxGeometry x="820" y="415" width="120" height="60" as="geometry" />
        </mxCell>
        <mxCell id="ixC7fo_xBta1fvAIzJk8-261" value="" style="edgeStyle=orthogonalEdgeStyle;rounded=0;orthogonalLoop=1;jettySize=auto;html=1;" edge="1" parent="1" source="ixC7fo_xBta1fvAIzJk8-262" target="ixC7fo_xBta1fvAIzJk8-264">
          <mxGeometry relative="1" as="geometry" />
        </mxCell>
        <mxCell id="ixC7fo_xBta1fvAIzJk8-262" value="Send command to set&lt;div&gt;cursor position to beginning of first line&lt;/div&gt;" style="whiteSpace=wrap;html=1;" vertex="1" parent="1">
          <mxGeometry x="820" y="520" width="120" height="60" as="geometry" />
        </mxCell>
        <mxCell id="ixC7fo_xBta1fvAIzJk8-263" value="" style="edgeStyle=orthogonalEdgeStyle;rounded=0;orthogonalLoop=1;jettySize=auto;html=1;entryX=0.5;entryY=0;entryDx=0;entryDy=0;" edge="1" parent="1" source="ixC7fo_xBta1fvAIzJk8-264" target="ixC7fo_xBta1fvAIzJk8-279">
          <mxGeometry relative="1" as="geometry">
            <mxPoint x="880" y="890" as="targetPoint" />
          </mxGeometry>
        </mxCell>
        <mxCell id="ixC7fo_xBta1fvAIzJk8-264" value="Delay for 500 ms" style="whiteSpace=wrap;html=1;" vertex="1" parent="1">
          <mxGeometry x="820" y="630" width="120" height="60" as="geometry" />
        </mxCell>
        <mxCell id="ixC7fo_xBta1fvAIzJk8-277" value="" style="edgeStyle=orthogonalEdgeStyle;rounded=0;orthogonalLoop=1;jettySize=auto;html=1;" edge="1" parent="1" source="ixC7fo_xBta1fvAIzJk8-265" target="ixC7fo_xBta1fvAIzJk8-271">
          <mxGeometry relative="1" as="geometry" />
        </mxCell>
        <mxCell id="ixC7fo_xBta1fvAIzJk8-265" value="Initialize the LCD" style="whiteSpace=wrap;html=1;" vertex="1" parent="1">
          <mxGeometry x="820" y="205" width="120" height="60" as="geometry" />
        </mxCell>
        <mxCell id="ixC7fo_xBta1fvAIzJk8-270" value="" style="edgeStyle=orthogonalEdgeStyle;rounded=0;orthogonalLoop=1;jettySize=auto;html=1;" edge="1" parent="1" source="ixC7fo_xBta1fvAIzJk8-269" target="ixC7fo_xBta1fvAIzJk8-265">
          <mxGeometry relative="1" as="geometry" />
        </mxCell>
        <mxCell id="ixC7fo_xBta1fvAIzJk8-269" value="Run Task 2" style="ellipse;whiteSpace=wrap;html=1;" vertex="1" parent="1">
          <mxGeometry x="820" y="75" width="120" height="80" as="geometry" />
        </mxCell>
        <mxCell id="ixC7fo_xBta1fvAIzJk8-278" value="" style="edgeStyle=orthogonalEdgeStyle;rounded=0;orthogonalLoop=1;jettySize=auto;html=1;" edge="1" parent="1" source="ixC7fo_xBta1fvAIzJk8-271" target="ixC7fo_xBta1fvAIzJk8-260">
          <mxGeometry relative="1" as="geometry" />
        </mxCell>
        <mxCell id="ixC7fo_xBta1fvAIzJk8-271" value="Initialize the Keypad" style="whiteSpace=wrap;html=1;" vertex="1" parent="1">
          <mxGeometry x="820" y="310" width="120" height="60" as="geometry" />
        </mxCell>
        <mxCell id="ixC7fo_xBta1fvAIzJk8-281" value="" style="edgeStyle=orthogonalEdgeStyle;rounded=0;orthogonalLoop=1;jettySize=auto;html=1;" edge="1" parent="1" source="ixC7fo_xBta1fvAIzJk8-279" target="ixC7fo_xBta1fvAIzJk8-280">
          <mxGeometry relative="1" as="geometry" />
        </mxCell>
        <mxCell id="ixC7fo_xBta1fvAIzJk8-279" value="Get Key Input" style="whiteSpace=wrap;html=1;" vertex="1" parent="1">
          <mxGeometry x="820" y="750" width="120" height="60" as="geometry" />
        </mxCell>
        <mxCell id="ixC7fo_xBta1fvAIzJk8-283" value="" style="edgeStyle=orthogonalEdgeStyle;rounded=0;orthogonalLoop=1;jettySize=auto;html=1;" edge="1" parent="1" source="ixC7fo_xBta1fvAIzJk8-280" target="ixC7fo_xBta1fvAIzJk8-282">
          <mxGeometry relative="1" as="geometry" />
        </mxCell>
        <mxCell id="ixC7fo_xBta1fvAIzJk8-280" value="Delay for 800 ms" style="whiteSpace=wrap;html=1;" vertex="1" parent="1">
          <mxGeometry x="820" y="860" width="120" height="60" as="geometry" />
        </mxCell>
        <mxCell id="ixC7fo_xBta1fvAIzJk8-284" style="edgeStyle=orthogonalEdgeStyle;rounded=0;orthogonalLoop=1;jettySize=auto;html=1;exitX=1;exitY=0.5;exitDx=0;exitDy=0;entryX=0.5;entryY=0;entryDx=0;entryDy=0;" edge="1" parent="1" source="ixC7fo_xBta1fvAIzJk8-282" target="ixC7fo_xBta1fvAIzJk8-279">
          <mxGeometry relative="1" as="geometry">
            <mxPoint x="1010" y="810" as="targetPoint" />
            <Array as="points">
              <mxPoint x="1030" y="1000" />
              <mxPoint x="1030" y="720" />
              <mxPoint x="880" y="720" />
            </Array>
          </mxGeometry>
        </mxCell>
        <mxCell id="ixC7fo_xBta1fvAIzJk8-285" value="NO" style="edgeLabel;html=1;align=center;verticalAlign=middle;resizable=0;points=[];labelBorderColor=default;" vertex="1" connectable="0" parent="ixC7fo_xBta1fvAIzJk8-284">
          <mxGeometry x="-0.8594" y="-3" relative="1" as="geometry">
            <mxPoint x="-2" y="-3" as="offset" />
          </mxGeometry>
        </mxCell>
        <mxCell id="ixC7fo_xBta1fvAIzJk8-288" value="" style="edgeStyle=orthogonalEdgeStyle;rounded=0;orthogonalLoop=1;jettySize=auto;html=1;" edge="1" parent="1" source="ixC7fo_xBta1fvAIzJk8-282" target="ixC7fo_xBta1fvAIzJk8-287">
          <mxGeometry relative="1" as="geometry" />
        </mxCell>
        <mxCell id="ixC7fo_xBta1fvAIzJk8-304" value="YES" style="edgeLabel;html=1;align=center;verticalAlign=middle;resizable=0;points=[];labelBorderColor=default;" vertex="1" connectable="0" parent="ixC7fo_xBta1fvAIzJk8-288">
          <mxGeometry x="-0.1758" relative="1" as="geometry">
            <mxPoint as="offset" />
          </mxGeometry>
        </mxCell>
        <mxCell id="ixC7fo_xBta1fvAIzJk8-282" value="Is key detected?" style="rhombus;whiteSpace=wrap;html=1;" vertex="1" parent="1">
          <mxGeometry x="820" y="960" width="120" height="80" as="geometry" />
        </mxCell>
        <mxCell id="ixC7fo_xBta1fvAIzJk8-302" value="" style="edgeStyle=orthogonalEdgeStyle;rounded=0;orthogonalLoop=1;jettySize=auto;html=1;" edge="1" parent="1" source="ixC7fo_xBta1fvAIzJk8-287" target="ixC7fo_xBta1fvAIzJk8-294">
          <mxGeometry relative="1" as="geometry">
            <Array as="points">
              <mxPoint x="880" y="1190" />
              <mxPoint x="1110" y="1190" />
              <mxPoint x="1110" y="150" />
              <mxPoint x="1220" y="150" />
            </Array>
          </mxGeometry>
        </mxCell>
        <mxCell id="ixC7fo_xBta1fvAIzJk8-287" value="Increment key&lt;div&gt;count by 1&lt;/div&gt;" style="whiteSpace=wrap;html=1;" vertex="1" parent="1">
          <mxGeometry x="820" y="1100" width="120" height="60" as="geometry" />
        </mxCell>
        <mxCell id="ixC7fo_xBta1fvAIzJk8-291" value="" style="edgeStyle=orthogonalEdgeStyle;rounded=0;orthogonalLoop=1;jettySize=auto;html=1;" edge="1" parent="1" source="ixC7fo_xBta1fvAIzJk8-289" target="ixC7fo_xBta1fvAIzJk8-290">
          <mxGeometry relative="1" as="geometry" />
        </mxCell>
        <mxCell id="ixC7fo_xBta1fvAIzJk8-289" value="Display detected&lt;div&gt;key to LCD&lt;/div&gt;" style="whiteSpace=wrap;html=1;" vertex="1" parent="1">
          <mxGeometry x="1160" y="675" width="120" height="60" as="geometry" />
        </mxCell>
        <mxCell id="ixC7fo_xBta1fvAIzJk8-517" style="edgeStyle=orthogonalEdgeStyle;rounded=0;orthogonalLoop=1;jettySize=auto;html=1;exitX=0;exitY=0.5;exitDx=0;exitDy=0;entryX=0.5;entryY=0;entryDx=0;entryDy=0;" edge="1" parent="1" source="ixC7fo_xBta1fvAIzJk8-290" target="ixC7fo_xBta1fvAIzJk8-279">
          <mxGeometry relative="1" as="geometry">
            <Array as="points">
              <mxPoint x="1070" y="835" />
              <mxPoint x="1070" y="720" />
              <mxPoint x="880" y="720" />
            </Array>
          </mxGeometry>
        </mxCell>
        <mxCell id="ixC7fo_xBta1fvAIzJk8-290" value="Delay for 500 ms" style="whiteSpace=wrap;html=1;" vertex="1" parent="1">
          <mxGeometry x="1160" y="805" width="120" height="60" as="geometry" />
        </mxCell>
        <mxCell id="ixC7fo_xBta1fvAIzJk8-298" value="" style="edgeStyle=orthogonalEdgeStyle;rounded=0;orthogonalLoop=1;jettySize=auto;html=1;" edge="1" parent="1" source="ixC7fo_xBta1fvAIzJk8-293" target="ixC7fo_xBta1fvAIzJk8-295">
          <mxGeometry relative="1" as="geometry" />
        </mxCell>
        <mxCell id="ixC7fo_xBta1fvAIzJk8-293" value="Reset key count to 0" style="whiteSpace=wrap;html=1;" vertex="1" parent="1">
          <mxGeometry x="1160" y="335" width="120" height="60" as="geometry" />
        </mxCell>
        <mxCell id="ixC7fo_xBta1fvAIzJk8-297" value="" style="edgeStyle=orthogonalEdgeStyle;rounded=0;orthogonalLoop=1;jettySize=auto;html=1;" edge="1" parent="1" source="ixC7fo_xBta1fvAIzJk8-294" target="ixC7fo_xBta1fvAIzJk8-293">
          <mxGeometry relative="1" as="geometry" />
        </mxCell>
        <mxCell id="ixC7fo_xBta1fvAIzJk8-306" value="YES" style="edgeLabel;html=1;align=center;verticalAlign=middle;resizable=0;points=[];labelBorderColor=default;" vertex="1" connectable="0" parent="ixC7fo_xBta1fvAIzJk8-297">
          <mxGeometry x="-0.0826" y="-1" relative="1" as="geometry">
            <mxPoint as="offset" />
          </mxGeometry>
        </mxCell>
        <mxCell id="ixC7fo_xBta1fvAIzJk8-301" style="edgeStyle=orthogonalEdgeStyle;rounded=0;orthogonalLoop=1;jettySize=auto;html=1;exitX=1;exitY=0.5;exitDx=0;exitDy=0;entryX=0.5;entryY=0;entryDx=0;entryDy=0;" edge="1" parent="1" source="ixC7fo_xBta1fvAIzJk8-294" target="ixC7fo_xBta1fvAIzJk8-290">
          <mxGeometry relative="1" as="geometry">
            <Array as="points">
              <mxPoint x="1340" y="235" />
              <mxPoint x="1340" y="765" />
              <mxPoint x="1220" y="765" />
            </Array>
          </mxGeometry>
        </mxCell>
        <mxCell id="ixC7fo_xBta1fvAIzJk8-305" value="NO" style="edgeLabel;html=1;align=center;verticalAlign=middle;resizable=0;points=[];labelBorderColor=default;" vertex="1" connectable="0" parent="ixC7fo_xBta1fvAIzJk8-301">
          <mxGeometry x="-0.9256" relative="1" as="geometry">
            <mxPoint as="offset" />
          </mxGeometry>
        </mxCell>
        <mxCell id="ixC7fo_xBta1fvAIzJk8-294" value="Is key count &amp;gt;=&amp;nbsp; 16?" style="rhombus;whiteSpace=wrap;html=1;" vertex="1" parent="1">
          <mxGeometry x="1160" y="195" width="120" height="80" as="geometry" />
        </mxCell>
        <mxCell id="ixC7fo_xBta1fvAIzJk8-299" value="" style="edgeStyle=orthogonalEdgeStyle;rounded=0;orthogonalLoop=1;jettySize=auto;html=1;" edge="1" parent="1" source="ixC7fo_xBta1fvAIzJk8-295" target="ixC7fo_xBta1fvAIzJk8-296">
          <mxGeometry relative="1" as="geometry" />
        </mxCell>
        <mxCell id="ixC7fo_xBta1fvAIzJk8-295" value="Send command to clear the Screen" style="whiteSpace=wrap;html=1;" vertex="1" parent="1">
          <mxGeometry x="1160" y="455" width="120" height="60" as="geometry" />
        </mxCell>
        <mxCell id="ixC7fo_xBta1fvAIzJk8-300" value="" style="edgeStyle=orthogonalEdgeStyle;rounded=0;orthogonalLoop=1;jettySize=auto;html=1;" edge="1" parent="1" source="ixC7fo_xBta1fvAIzJk8-296" target="ixC7fo_xBta1fvAIzJk8-289">
          <mxGeometry relative="1" as="geometry" />
        </mxCell>
        <mxCell id="ixC7fo_xBta1fvAIzJk8-296" value="Send command to set&lt;div&gt;cursor position to beginning of first line&lt;/div&gt;" style="whiteSpace=wrap;html=1;" vertex="1" parent="1">
          <mxGeometry x="1160" y="565" width="120" height="60" as="geometry" />
        </mxCell>
        <mxCell id="ixC7fo_xBta1fvAIzJk8-366" value="" style="edgeStyle=orthogonalEdgeStyle;rounded=0;orthogonalLoop=1;jettySize=auto;html=1;" edge="1" parent="1" source="ixC7fo_xBta1fvAIzJk8-367" target="ixC7fo_xBta1fvAIzJk8-372">
          <mxGeometry relative="1" as="geometry" />
        </mxCell>
        <mxCell id="ixC7fo_xBta1fvAIzJk8-367" value="Enable Port B Clock" style="rounded=0;whiteSpace=wrap;html=1;" vertex="1" parent="1">
          <mxGeometry x="2760" y="200" width="120" height="60" as="geometry" />
        </mxCell>
        <mxCell id="ixC7fo_xBta1fvAIzJk8-368" value="" style="edgeStyle=orthogonalEdgeStyle;rounded=0;orthogonalLoop=1;jettySize=auto;html=1;" edge="1" parent="1" source="ixC7fo_xBta1fvAIzJk8-369" target="ixC7fo_xBta1fvAIzJk8-378">
          <mxGeometry relative="1" as="geometry" />
        </mxCell>
        <mxCell id="ixC7fo_xBta1fvAIzJk8-369" value="Set commit register&lt;div&gt;to only work with&lt;/div&gt;&lt;div&gt;LCD Pins&lt;/div&gt;" style="rounded=0;whiteSpace=wrap;html=1;" vertex="1" parent="1">
          <mxGeometry x="2760" y="550" width="120" height="60" as="geometry" />
        </mxCell>
        <mxCell id="ixC7fo_xBta1fvAIzJk8-370" value="" style="edgeStyle=orthogonalEdgeStyle;rounded=0;orthogonalLoop=1;jettySize=auto;html=1;" edge="1" parent="1" source="ixC7fo_xBta1fvAIzJk8-372" target="ixC7fo_xBta1fvAIzJk8-374">
          <mxGeometry relative="1" as="geometry" />
        </mxCell>
        <mxCell id="ixC7fo_xBta1fvAIzJk8-371" value="YES" style="edgeLabel;html=1;align=center;verticalAlign=middle;resizable=0;points=[];labelBorderColor=default;" vertex="1" connectable="0" parent="ixC7fo_xBta1fvAIzJk8-370">
          <mxGeometry x="0.1009" relative="1" as="geometry">
            <mxPoint y="-13" as="offset" />
          </mxGeometry>
        </mxCell>
        <mxCell id="ixC7fo_xBta1fvAIzJk8-372" value="Is Port B Clock enabled?" style="rhombus;whiteSpace=wrap;html=1;" vertex="1" parent="1">
          <mxGeometry x="2760" y="300" width="120" height="80" as="geometry" />
        </mxCell>
        <mxCell id="ixC7fo_xBta1fvAIzJk8-373" value="" style="edgeStyle=orthogonalEdgeStyle;rounded=0;orthogonalLoop=1;jettySize=auto;html=1;" edge="1" parent="1" source="ixC7fo_xBta1fvAIzJk8-374" target="ixC7fo_xBta1fvAIzJk8-369">
          <mxGeometry relative="1" as="geometry" />
        </mxCell>
        <mxCell id="ixC7fo_xBta1fvAIzJk8-374" value="Unlock port B configuration" style="whiteSpace=wrap;html=1;" vertex="1" parent="1">
          <mxGeometry x="2760" y="440" width="120" height="60" as="geometry" />
        </mxCell>
        <mxCell id="ixC7fo_xBta1fvAIzJk8-375" style="edgeStyle=orthogonalEdgeStyle;rounded=0;orthogonalLoop=1;jettySize=auto;html=1;exitX=1;exitY=0.5;exitDx=0;exitDy=0;entryX=0.5;entryY=0;entryDx=0;entryDy=0;" edge="1" parent="1" source="ixC7fo_xBta1fvAIzJk8-372" target="ixC7fo_xBta1fvAIzJk8-372">
          <mxGeometry relative="1" as="geometry">
            <Array as="points">
              <mxPoint x="2920" y="340" />
              <mxPoint x="2920" y="280" />
              <mxPoint x="2820" y="280" />
            </Array>
          </mxGeometry>
        </mxCell>
        <mxCell id="ixC7fo_xBta1fvAIzJk8-376" value="NO" style="edgeLabel;html=1;align=center;verticalAlign=middle;resizable=0;points=[];labelBorderColor=default;" vertex="1" connectable="0" parent="ixC7fo_xBta1fvAIzJk8-375">
          <mxGeometry x="-0.8606" y="-2" relative="1" as="geometry">
            <mxPoint x="5" y="-2" as="offset" />
          </mxGeometry>
        </mxCell>
        <mxCell id="ixC7fo_xBta1fvAIzJk8-377" value="" style="edgeStyle=orthogonalEdgeStyle;rounded=0;orthogonalLoop=1;jettySize=auto;html=1;" edge="1" parent="1" source="ixC7fo_xBta1fvAIzJk8-378" target="ixC7fo_xBta1fvAIzJk8-380">
          <mxGeometry relative="1" as="geometry" />
        </mxCell>
        <mxCell id="ixC7fo_xBta1fvAIzJk8-378" value="Set all LCD Pins&lt;div&gt;as output&lt;/div&gt;" style="whiteSpace=wrap;html=1;rounded=0;" vertex="1" parent="1">
          <mxGeometry x="2760" y="660" width="120" height="60" as="geometry" />
        </mxCell>
        <mxCell id="ixC7fo_xBta1fvAIzJk8-379" value="" style="edgeStyle=orthogonalEdgeStyle;rounded=0;orthogonalLoop=1;jettySize=auto;html=1;" edge="1" parent="1" source="ixC7fo_xBta1fvAIzJk8-380" target="ixC7fo_xBta1fvAIzJk8-382">
          <mxGeometry relative="1" as="geometry" />
        </mxCell>
        <mxCell id="ixC7fo_xBta1fvAIzJk8-380" value="Disable analog functionality for all LCD Pins" style="whiteSpace=wrap;html=1;rounded=0;" vertex="1" parent="1">
          <mxGeometry x="2760" y="770" width="120" height="60" as="geometry" />
        </mxCell>
        <mxCell id="ixC7fo_xBta1fvAIzJk8-381" value="" style="edgeStyle=orthogonalEdgeStyle;rounded=0;orthogonalLoop=1;jettySize=auto;html=1;" edge="1" parent="1" source="ixC7fo_xBta1fvAIzJk8-382" target="ixC7fo_xBta1fvAIzJk8-384">
          <mxGeometry relative="1" as="geometry" />
        </mxCell>
        <mxCell id="ixC7fo_xBta1fvAIzJk8-382" value="Enable digital functionality for all LCD Pins" style="whiteSpace=wrap;html=1;rounded=0;" vertex="1" parent="1">
          <mxGeometry x="2760" y="880" width="120" height="60" as="geometry" />
        </mxCell>
        <mxCell id="ixC7fo_xBta1fvAIzJk8-383" value="" style="edgeStyle=orthogonalEdgeStyle;rounded=0;orthogonalLoop=1;jettySize=auto;html=1;" edge="1" parent="1" source="ixC7fo_xBta1fvAIzJk8-384" target="ixC7fo_xBta1fvAIzJk8-386">
          <mxGeometry relative="1" as="geometry" />
        </mxCell>
        <mxCell id="ixC7fo_xBta1fvAIzJk8-384" value="Disable all alternate functionality for all LCD Pins" style="whiteSpace=wrap;html=1;rounded=0;" vertex="1" parent="1">
          <mxGeometry x="2760" y="990" width="120" height="60" as="geometry" />
        </mxCell>
        <mxCell id="ixC7fo_xBta1fvAIzJk8-385" value="" style="edgeStyle=orthogonalEdgeStyle;rounded=0;orthogonalLoop=1;jettySize=auto;html=1;" edge="1" parent="1" source="ixC7fo_xBta1fvAIzJk8-386" target="ixC7fo_xBta1fvAIzJk8-387">
          <mxGeometry relative="1" as="geometry" />
        </mxCell>
        <mxCell id="ixC7fo_xBta1fvAIzJk8-386" value="Disable all special functionality for all LCD Pins" style="whiteSpace=wrap;html=1;rounded=0;" vertex="1" parent="1">
          <mxGeometry x="2760" y="1100" width="120" height="60" as="geometry" />
        </mxCell>
        <mxCell id="ixC7fo_xBta1fvAIzJk8-387" value="END" style="ellipse;whiteSpace=wrap;html=1;" vertex="1" parent="1">
          <mxGeometry x="2760" y="1220" width="120" height="80" as="geometry" />
        </mxCell>
        <mxCell id="ixC7fo_xBta1fvAIzJk8-389" value="" style="edgeStyle=orthogonalEdgeStyle;rounded=0;orthogonalLoop=1;jettySize=auto;html=1;" edge="1" parent="1" source="ixC7fo_xBta1fvAIzJk8-390" target="ixC7fo_xBta1fvAIzJk8-395">
          <mxGeometry relative="1" as="geometry" />
        </mxCell>
        <mxCell id="ixC7fo_xBta1fvAIzJk8-390" value="Enable Port C Clock" style="rounded=0;whiteSpace=wrap;html=1;" vertex="1" parent="1">
          <mxGeometry x="1680" y="200" width="120" height="60" as="geometry" />
        </mxCell>
        <mxCell id="ixC7fo_xBta1fvAIzJk8-391" value="" style="edgeStyle=orthogonalEdgeStyle;rounded=0;orthogonalLoop=1;jettySize=auto;html=1;" edge="1" parent="1" source="ixC7fo_xBta1fvAIzJk8-392" target="ixC7fo_xBta1fvAIzJk8-400">
          <mxGeometry relative="1" as="geometry" />
        </mxCell>
        <mxCell id="ixC7fo_xBta1fvAIzJk8-392" value="Set commit register&lt;div&gt;to only work with&lt;div&gt;column pins&lt;/div&gt;&lt;/div&gt;" style="rounded=0;whiteSpace=wrap;html=1;" vertex="1" parent="1">
          <mxGeometry x="1680" y="550" width="120" height="60" as="geometry" />
        </mxCell>
        <mxCell id="ixC7fo_xBta1fvAIzJk8-393" value="" style="edgeStyle=orthogonalEdgeStyle;rounded=0;orthogonalLoop=1;jettySize=auto;html=1;" edge="1" parent="1" source="ixC7fo_xBta1fvAIzJk8-395" target="ixC7fo_xBta1fvAIzJk8-397">
          <mxGeometry relative="1" as="geometry" />
        </mxCell>
        <mxCell id="ixC7fo_xBta1fvAIzJk8-394" value="YES" style="edgeLabel;html=1;align=center;verticalAlign=middle;resizable=0;points=[];labelBorderColor=default;" vertex="1" connectable="0" parent="ixC7fo_xBta1fvAIzJk8-393">
          <mxGeometry x="0.1009" relative="1" as="geometry">
            <mxPoint y="-13" as="offset" />
          </mxGeometry>
        </mxCell>
        <mxCell id="ixC7fo_xBta1fvAIzJk8-434" style="edgeStyle=orthogonalEdgeStyle;rounded=0;orthogonalLoop=1;jettySize=auto;html=1;exitX=1;exitY=0.5;exitDx=0;exitDy=0;" edge="1" parent="1" source="ixC7fo_xBta1fvAIzJk8-395">
          <mxGeometry relative="1" as="geometry">
            <mxPoint x="1740" y="300" as="targetPoint" />
            <Array as="points">
              <mxPoint x="1840" y="340" />
              <mxPoint x="1840" y="280" />
              <mxPoint x="1740" y="280" />
            </Array>
          </mxGeometry>
        </mxCell>
        <mxCell id="ixC7fo_xBta1fvAIzJk8-395" value="Is Port C Clock enabled?" style="rhombus;whiteSpace=wrap;html=1;" vertex="1" parent="1">
          <mxGeometry x="1680" y="300" width="120" height="80" as="geometry" />
        </mxCell>
        <mxCell id="ixC7fo_xBta1fvAIzJk8-396" value="" style="edgeStyle=orthogonalEdgeStyle;rounded=0;orthogonalLoop=1;jettySize=auto;html=1;" edge="1" parent="1" source="ixC7fo_xBta1fvAIzJk8-397" target="ixC7fo_xBta1fvAIzJk8-392">
          <mxGeometry relative="1" as="geometry" />
        </mxCell>
        <mxCell id="ixC7fo_xBta1fvAIzJk8-397" value="Unlock port C configuration" style="whiteSpace=wrap;html=1;" vertex="1" parent="1">
          <mxGeometry x="1680" y="440" width="120" height="60" as="geometry" />
        </mxCell>
        <mxCell id="ixC7fo_xBta1fvAIzJk8-398" value="NO" style="edgeLabel;html=1;align=center;verticalAlign=middle;resizable=0;points=[];labelBorderColor=default;" vertex="1" connectable="0" parent="1">
          <mxGeometry x="1820" y="340" as="geometry" />
        </mxCell>
        <mxCell id="ixC7fo_xBta1fvAIzJk8-399" value="" style="edgeStyle=orthogonalEdgeStyle;rounded=0;orthogonalLoop=1;jettySize=auto;html=1;" edge="1" parent="1" source="ixC7fo_xBta1fvAIzJk8-400" target="ixC7fo_xBta1fvAIzJk8-402">
          <mxGeometry relative="1" as="geometry" />
        </mxCell>
        <mxCell id="ixC7fo_xBta1fvAIzJk8-400" value="Set all column pins&lt;div&gt;as inputs&lt;/div&gt;" style="whiteSpace=wrap;html=1;rounded=0;" vertex="1" parent="1">
          <mxGeometry x="1680" y="660" width="120" height="60" as="geometry" />
        </mxCell>
        <mxCell id="ixC7fo_xBta1fvAIzJk8-401" value="" style="edgeStyle=orthogonalEdgeStyle;rounded=0;orthogonalLoop=1;jettySize=auto;html=1;" edge="1" parent="1" source="ixC7fo_xBta1fvAIzJk8-402" target="ixC7fo_xBta1fvAIzJk8-404">
          <mxGeometry relative="1" as="geometry" />
        </mxCell>
        <mxCell id="ixC7fo_xBta1fvAIzJk8-402" value="Disable analog functionality for column pins" style="whiteSpace=wrap;html=1;rounded=0;" vertex="1" parent="1">
          <mxGeometry x="1680" y="770" width="120" height="60" as="geometry" />
        </mxCell>
        <mxCell id="ixC7fo_xBta1fvAIzJk8-403" value="" style="edgeStyle=orthogonalEdgeStyle;rounded=0;orthogonalLoop=1;jettySize=auto;html=1;" edge="1" parent="1" source="ixC7fo_xBta1fvAIzJk8-404" target="ixC7fo_xBta1fvAIzJk8-406">
          <mxGeometry relative="1" as="geometry" />
        </mxCell>
        <mxCell id="ixC7fo_xBta1fvAIzJk8-404" value="Enable digital functionality for column pins" style="whiteSpace=wrap;html=1;rounded=0;" vertex="1" parent="1">
          <mxGeometry x="1680" y="880" width="120" height="60" as="geometry" />
        </mxCell>
        <mxCell id="ixC7fo_xBta1fvAIzJk8-405" value="" style="edgeStyle=orthogonalEdgeStyle;rounded=0;orthogonalLoop=1;jettySize=auto;html=1;" edge="1" parent="1" source="ixC7fo_xBta1fvAIzJk8-406" target="ixC7fo_xBta1fvAIzJk8-408">
          <mxGeometry relative="1" as="geometry" />
        </mxCell>
        <mxCell id="ixC7fo_xBta1fvAIzJk8-406" value="Disable all alternate functionality for column pins" style="whiteSpace=wrap;html=1;rounded=0;" vertex="1" parent="1">
          <mxGeometry x="1680" y="990" width="120" height="60" as="geometry" />
        </mxCell>
        <mxCell id="ixC7fo_xBta1fvAIzJk8-432" value="" style="edgeStyle=orthogonalEdgeStyle;rounded=0;orthogonalLoop=1;jettySize=auto;html=1;" edge="1" parent="1" source="ixC7fo_xBta1fvAIzJk8-408" target="ixC7fo_xBta1fvAIzJk8-431">
          <mxGeometry relative="1" as="geometry" />
        </mxCell>
        <mxCell id="ixC7fo_xBta1fvAIzJk8-408" value="Disable all special functionality for column pins" style="whiteSpace=wrap;html=1;rounded=0;" vertex="1" parent="1">
          <mxGeometry x="1680" y="1100" width="120" height="60" as="geometry" />
        </mxCell>
        <mxCell id="ixC7fo_xBta1fvAIzJk8-409" value="END" style="ellipse;whiteSpace=wrap;html=1;" vertex="1" parent="1">
          <mxGeometry x="1680" y="1310" width="120" height="80" as="geometry" />
        </mxCell>
        <mxCell id="ixC7fo_xBta1fvAIzJk8-433" value="" style="edgeStyle=orthogonalEdgeStyle;rounded=0;orthogonalLoop=1;jettySize=auto;html=1;" edge="1" parent="1" source="ixC7fo_xBta1fvAIzJk8-431" target="ixC7fo_xBta1fvAIzJk8-409">
          <mxGeometry relative="1" as="geometry" />
        </mxCell>
        <mxCell id="ixC7fo_xBta1fvAIzJk8-431" value="Enable pull-up resistors&lt;div&gt;for column pins&lt;/div&gt;" style="whiteSpace=wrap;html=1;rounded=0;" vertex="1" parent="1">
          <mxGeometry x="1680" y="1210" width="120" height="60" as="geometry" />
        </mxCell>
        <mxCell id="ixC7fo_xBta1fvAIzJk8-436" value="" style="edgeStyle=orthogonalEdgeStyle;rounded=0;orthogonalLoop=1;jettySize=auto;html=1;" edge="1" parent="1" source="ixC7fo_xBta1fvAIzJk8-437" target="ixC7fo_xBta1fvAIzJk8-443">
          <mxGeometry relative="1" as="geometry" />
        </mxCell>
        <mxCell id="ixC7fo_xBta1fvAIzJk8-437" value="Enable Port E Clock" style="rounded=0;whiteSpace=wrap;html=1;" vertex="1" parent="1">
          <mxGeometry x="1880" y="200" width="120" height="60" as="geometry" />
        </mxCell>
        <mxCell id="ixC7fo_xBta1fvAIzJk8-438" value="" style="edgeStyle=orthogonalEdgeStyle;rounded=0;orthogonalLoop=1;jettySize=auto;html=1;" edge="1" parent="1" source="ixC7fo_xBta1fvAIzJk8-439" target="ixC7fo_xBta1fvAIzJk8-448">
          <mxGeometry relative="1" as="geometry" />
        </mxCell>
        <mxCell id="ixC7fo_xBta1fvAIzJk8-439" value="Set commit register&lt;div&gt;to only work with&lt;div&gt;row pins&lt;/div&gt;&lt;/div&gt;" style="rounded=0;whiteSpace=wrap;html=1;" vertex="1" parent="1">
          <mxGeometry x="1880" y="550" width="120" height="60" as="geometry" />
        </mxCell>
        <mxCell id="ixC7fo_xBta1fvAIzJk8-440" value="" style="edgeStyle=orthogonalEdgeStyle;rounded=0;orthogonalLoop=1;jettySize=auto;html=1;" edge="1" parent="1" source="ixC7fo_xBta1fvAIzJk8-443" target="ixC7fo_xBta1fvAIzJk8-445">
          <mxGeometry relative="1" as="geometry" />
        </mxCell>
        <mxCell id="ixC7fo_xBta1fvAIzJk8-441" value="YES" style="edgeLabel;html=1;align=center;verticalAlign=middle;resizable=0;points=[];labelBorderColor=default;" vertex="1" connectable="0" parent="ixC7fo_xBta1fvAIzJk8-440">
          <mxGeometry x="0.1009" relative="1" as="geometry">
            <mxPoint y="-13" as="offset" />
          </mxGeometry>
        </mxCell>
        <mxCell id="ixC7fo_xBta1fvAIzJk8-442" style="edgeStyle=orthogonalEdgeStyle;rounded=0;orthogonalLoop=1;jettySize=auto;html=1;exitX=1;exitY=0.5;exitDx=0;exitDy=0;" edge="1" parent="1" source="ixC7fo_xBta1fvAIzJk8-443">
          <mxGeometry relative="1" as="geometry">
            <mxPoint x="1940" y="300" as="targetPoint" />
            <Array as="points">
              <mxPoint x="2040" y="340" />
              <mxPoint x="2040" y="280" />
              <mxPoint x="1940" y="280" />
            </Array>
          </mxGeometry>
        </mxCell>
        <mxCell id="ixC7fo_xBta1fvAIzJk8-443" value="Is Port E Clock enabled?" style="rhombus;whiteSpace=wrap;html=1;" vertex="1" parent="1">
          <mxGeometry x="1880" y="300" width="120" height="80" as="geometry" />
        </mxCell>
        <mxCell id="ixC7fo_xBta1fvAIzJk8-444" value="" style="edgeStyle=orthogonalEdgeStyle;rounded=0;orthogonalLoop=1;jettySize=auto;html=1;" edge="1" parent="1" source="ixC7fo_xBta1fvAIzJk8-445" target="ixC7fo_xBta1fvAIzJk8-439">
          <mxGeometry relative="1" as="geometry" />
        </mxCell>
        <mxCell id="ixC7fo_xBta1fvAIzJk8-445" value="Unlock port E configuration" style="whiteSpace=wrap;html=1;" vertex="1" parent="1">
          <mxGeometry x="1880" y="440" width="120" height="60" as="geometry" />
        </mxCell>
        <mxCell id="ixC7fo_xBta1fvAIzJk8-446" value="NO" style="edgeLabel;html=1;align=center;verticalAlign=middle;resizable=0;points=[];labelBorderColor=default;" vertex="1" connectable="0" parent="1">
          <mxGeometry x="2020" y="340" as="geometry" />
        </mxCell>
        <mxCell id="ixC7fo_xBta1fvAIzJk8-447" value="" style="edgeStyle=orthogonalEdgeStyle;rounded=0;orthogonalLoop=1;jettySize=auto;html=1;" edge="1" parent="1" source="ixC7fo_xBta1fvAIzJk8-448" target="ixC7fo_xBta1fvAIzJk8-450">
          <mxGeometry relative="1" as="geometry" />
        </mxCell>
        <mxCell id="ixC7fo_xBta1fvAIzJk8-448" value="Set all row pins&lt;div&gt;as outputs&lt;/div&gt;" style="whiteSpace=wrap;html=1;rounded=0;" vertex="1" parent="1">
          <mxGeometry x="1880" y="660" width="120" height="60" as="geometry" />
        </mxCell>
        <mxCell id="ixC7fo_xBta1fvAIzJk8-449" value="" style="edgeStyle=orthogonalEdgeStyle;rounded=0;orthogonalLoop=1;jettySize=auto;html=1;" edge="1" parent="1" source="ixC7fo_xBta1fvAIzJk8-450" target="ixC7fo_xBta1fvAIzJk8-452">
          <mxGeometry relative="1" as="geometry" />
        </mxCell>
        <mxCell id="ixC7fo_xBta1fvAIzJk8-450" value="Disable analog functionality for row pins" style="whiteSpace=wrap;html=1;rounded=0;" vertex="1" parent="1">
          <mxGeometry x="1880" y="770" width="120" height="60" as="geometry" />
        </mxCell>
        <mxCell id="ixC7fo_xBta1fvAIzJk8-451" value="" style="edgeStyle=orthogonalEdgeStyle;rounded=0;orthogonalLoop=1;jettySize=auto;html=1;" edge="1" parent="1" source="ixC7fo_xBta1fvAIzJk8-452" target="ixC7fo_xBta1fvAIzJk8-454">
          <mxGeometry relative="1" as="geometry" />
        </mxCell>
        <mxCell id="ixC7fo_xBta1fvAIzJk8-452" value="Enable digital functionality for row pins" style="whiteSpace=wrap;html=1;rounded=0;" vertex="1" parent="1">
          <mxGeometry x="1880" y="880" width="120" height="60" as="geometry" />
        </mxCell>
        <mxCell id="ixC7fo_xBta1fvAIzJk8-453" value="" style="edgeStyle=orthogonalEdgeStyle;rounded=0;orthogonalLoop=1;jettySize=auto;html=1;" edge="1" parent="1" source="ixC7fo_xBta1fvAIzJk8-454" target="ixC7fo_xBta1fvAIzJk8-456">
          <mxGeometry relative="1" as="geometry" />
        </mxCell>
        <mxCell id="ixC7fo_xBta1fvAIzJk8-454" value="Disable all alternate functionality for row pins" style="whiteSpace=wrap;html=1;rounded=0;" vertex="1" parent="1">
          <mxGeometry x="1880" y="990" width="120" height="60" as="geometry" />
        </mxCell>
        <mxCell id="ixC7fo_xBta1fvAIzJk8-455" value="" style="edgeStyle=orthogonalEdgeStyle;rounded=0;orthogonalLoop=1;jettySize=auto;html=1;" edge="1" parent="1" source="ixC7fo_xBta1fvAIzJk8-456" target="ixC7fo_xBta1fvAIzJk8-459">
          <mxGeometry relative="1" as="geometry" />
        </mxCell>
        <mxCell id="ixC7fo_xBta1fvAIzJk8-456" value="Disable all special functionality for row pins" style="whiteSpace=wrap;html=1;rounded=0;" vertex="1" parent="1">
          <mxGeometry x="1880" y="1100" width="120" height="60" as="geometry" />
        </mxCell>
        <mxCell id="ixC7fo_xBta1fvAIzJk8-457" value="END" style="ellipse;whiteSpace=wrap;html=1;" vertex="1" parent="1">
          <mxGeometry x="1880" y="1310" width="120" height="80" as="geometry" />
        </mxCell>
        <mxCell id="ixC7fo_xBta1fvAIzJk8-458" value="" style="edgeStyle=orthogonalEdgeStyle;rounded=0;orthogonalLoop=1;jettySize=auto;html=1;" edge="1" parent="1" source="ixC7fo_xBta1fvAIzJk8-459" target="ixC7fo_xBta1fvAIzJk8-457">
          <mxGeometry relative="1" as="geometry" />
        </mxCell>
        <mxCell id="ixC7fo_xBta1fvAIzJk8-459" value="&lt;div&gt;Set&amp;nbsp;&lt;span style=&quot;background-color: initial;&quot;&gt;row pins to open drain mode&lt;/span&gt;&lt;/div&gt;" style="whiteSpace=wrap;html=1;rounded=0;" vertex="1" parent="1">
          <mxGeometry x="1880" y="1210" width="120" height="60" as="geometry" />
        </mxCell>
        <mxCell id="ixC7fo_xBta1fvAIzJk8-464" value="" style="edgeStyle=orthogonalEdgeStyle;rounded=0;orthogonalLoop=1;jettySize=auto;html=1;" edge="1" parent="1" source="ixC7fo_xBta1fvAIzJk8-461" target="ixC7fo_xBta1fvAIzJk8-463">
          <mxGeometry relative="1" as="geometry" />
        </mxCell>
        <mxCell id="ixC7fo_xBta1fvAIzJk8-461" value="Setup Keypad&lt;div&gt;&lt;span style=&quot;background-color: initial;&quot;&gt;Row Pins&lt;/span&gt;&lt;/div&gt;" style="shape=process;whiteSpace=wrap;html=1;backgroundOutline=1;" vertex="1" parent="1">
          <mxGeometry x="1480" y="200" width="120" height="60" as="geometry" />
        </mxCell>
        <mxCell id="ixC7fo_xBta1fvAIzJk8-466" value="" style="edgeStyle=orthogonalEdgeStyle;rounded=0;orthogonalLoop=1;jettySize=auto;html=1;" edge="1" parent="1" source="ixC7fo_xBta1fvAIzJk8-463" target="ixC7fo_xBta1fvAIzJk8-465">
          <mxGeometry relative="1" as="geometry" />
        </mxCell>
        <mxCell id="ixC7fo_xBta1fvAIzJk8-463" value="Setup Keypad&lt;div&gt;&lt;span style=&quot;background-color: initial;&quot;&gt;Column Pins&lt;/span&gt;&lt;/div&gt;" style="shape=process;whiteSpace=wrap;html=1;backgroundOutline=1;" vertex="1" parent="1">
          <mxGeometry x="1480" y="300" width="120" height="60" as="geometry" />
        </mxCell>
        <mxCell id="ixC7fo_xBta1fvAIzJk8-465" value="END" style="ellipse;whiteSpace=wrap;html=1;" vertex="1" parent="1">
          <mxGeometry x="1480" y="400" width="120" height="80" as="geometry" />
        </mxCell>
        <mxCell id="ixC7fo_xBta1fvAIzJk8-471" value="" style="edgeStyle=orthogonalEdgeStyle;rounded=0;orthogonalLoop=1;jettySize=auto;html=1;" edge="1" parent="1" source="ixC7fo_xBta1fvAIzJk8-467" target="ixC7fo_xBta1fvAIzJk8-469">
          <mxGeometry relative="1" as="geometry" />
        </mxCell>
        <mxCell id="ixC7fo_xBta1fvAIzJk8-467" value="Set row pins to GND&lt;br&gt;(Active LOW)" style="rounded=0;whiteSpace=wrap;html=1;" vertex="1" parent="1">
          <mxGeometry x="2106.87" y="200" width="120" height="60" as="geometry" />
        </mxCell>
        <mxCell id="ixC7fo_xBta1fvAIzJk8-472" value="" style="edgeStyle=orthogonalEdgeStyle;rounded=0;orthogonalLoop=1;jettySize=auto;html=1;entryX=0.5;entryY=0;entryDx=0;entryDy=0;" edge="1" parent="1" source="ixC7fo_xBta1fvAIzJk8-469" target="ixC7fo_xBta1fvAIzJk8-473">
          <mxGeometry relative="1" as="geometry">
            <mxPoint x="2166.87" y="440" as="targetPoint" />
          </mxGeometry>
        </mxCell>
        <mxCell id="ixC7fo_xBta1fvAIzJk8-469" value="Read inputs from all column pins" style="rounded=0;whiteSpace=wrap;html=1;" vertex="1" parent="1">
          <mxGeometry x="2106.87" y="310" width="120" height="60" as="geometry" />
        </mxCell>
        <mxCell id="ixC7fo_xBta1fvAIzJk8-479" value="" style="edgeStyle=orthogonalEdgeStyle;rounded=0;orthogonalLoop=1;jettySize=auto;html=1;" edge="1" parent="1" source="ixC7fo_xBta1fvAIzJk8-473" target="ixC7fo_xBta1fvAIzJk8-477">
          <mxGeometry relative="1" as="geometry" />
        </mxCell>
        <mxCell id="ixC7fo_xBta1fvAIzJk8-480" value="YES" style="edgeLabel;html=1;align=center;verticalAlign=middle;resizable=0;points=[];labelBorderColor=default;" vertex="1" connectable="0" parent="ixC7fo_xBta1fvAIzJk8-479">
          <mxGeometry x="-0.2485" y="-1" relative="1" as="geometry">
            <mxPoint as="offset" />
          </mxGeometry>
        </mxCell>
        <mxCell id="ixC7fo_xBta1fvAIzJk8-493" value="" style="edgeStyle=orthogonalEdgeStyle;rounded=0;orthogonalLoop=1;jettySize=auto;html=1;" edge="1" parent="1" source="ixC7fo_xBta1fvAIzJk8-473" target="ixC7fo_xBta1fvAIzJk8-492">
          <mxGeometry relative="1" as="geometry" />
        </mxCell>
        <mxCell id="ixC7fo_xBta1fvAIzJk8-473" value="If no key&lt;div&gt;is pressed?&lt;/div&gt;" style="rhombus;whiteSpace=wrap;html=1;" vertex="1" parent="1">
          <mxGeometry x="2106.87" y="430" width="120" height="80" as="geometry" />
        </mxCell>
        <mxCell id="ixC7fo_xBta1fvAIzJk8-477" value="Return 0" style="shape=parallelogram;perimeter=parallelogramPerimeter;whiteSpace=wrap;html=1;fixedSize=1;" vertex="1" parent="1">
          <mxGeometry x="2266.87" y="440" width="120" height="60" as="geometry" />
        </mxCell>
        <mxCell id="ixC7fo_xBta1fvAIzJk8-484" value="" style="edgeStyle=orthogonalEdgeStyle;rounded=0;orthogonalLoop=1;jettySize=auto;html=1;" edge="1" parent="1" source="ixC7fo_xBta1fvAIzJk8-481" target="ixC7fo_xBta1fvAIzJk8-483">
          <mxGeometry relative="1" as="geometry" />
        </mxCell>
        <mxCell id="ixC7fo_xBta1fvAIzJk8-481" value="Set output of&lt;div&gt;n-th row to GND&lt;br&gt;(Active LOW)&lt;/div&gt;" style="whiteSpace=wrap;html=1;" vertex="1" parent="1">
          <mxGeometry x="2106.87" y="775" width="120" height="60" as="geometry" />
        </mxCell>
        <mxCell id="ixC7fo_xBta1fvAIzJk8-502" value="" style="edgeStyle=orthogonalEdgeStyle;rounded=0;orthogonalLoop=1;jettySize=auto;html=1;" edge="1" parent="1" source="ixC7fo_xBta1fvAIzJk8-483" target="ixC7fo_xBta1fvAIzJk8-501">
          <mxGeometry relative="1" as="geometry" />
        </mxCell>
        <mxCell id="ixC7fo_xBta1fvAIzJk8-483" value="Delay for 10 us" style="whiteSpace=wrap;html=1;" vertex="1" parent="1">
          <mxGeometry x="2106.87" y="880" width="120" height="60" as="geometry" />
        </mxCell>
        <mxCell id="ixC7fo_xBta1fvAIzJk8-488" value="" style="edgeStyle=orthogonalEdgeStyle;rounded=0;orthogonalLoop=1;jettySize=auto;html=1;" edge="1" parent="1" source="ixC7fo_xBta1fvAIzJk8-485" target="ixC7fo_xBta1fvAIzJk8-487">
          <mxGeometry relative="1" as="geometry" />
        </mxCell>
        <mxCell id="ixC7fo_xBta1fvAIzJk8-485" value="Read input from&lt;div&gt;n-th column pin&lt;/div&gt;" style="whiteSpace=wrap;html=1;" vertex="1" parent="1">
          <mxGeometry x="2106.87" y="1250.0100000000002" width="120" height="60" as="geometry" />
        </mxCell>
        <mxCell id="ixC7fo_xBta1fvAIzJk8-490" value="" style="edgeStyle=orthogonalEdgeStyle;rounded=0;orthogonalLoop=1;jettySize=auto;html=1;" edge="1" parent="1" source="ixC7fo_xBta1fvAIzJk8-487" target="ixC7fo_xBta1fvAIzJk8-489">
          <mxGeometry relative="1" as="geometry" />
        </mxCell>
        <mxCell id="ixC7fo_xBta1fvAIzJk8-498" value="YES" style="edgeLabel;html=1;align=center;verticalAlign=middle;resizable=0;points=[];labelBorderColor=default;" vertex="1" connectable="0" parent="ixC7fo_xBta1fvAIzJk8-490">
          <mxGeometry x="-0.0768" relative="1" as="geometry">
            <mxPoint as="offset" />
          </mxGeometry>
        </mxCell>
        <mxCell id="ixC7fo_xBta1fvAIzJk8-499" style="edgeStyle=orthogonalEdgeStyle;rounded=0;orthogonalLoop=1;jettySize=auto;html=1;exitX=1;exitY=0.5;exitDx=0;exitDy=0;entryX=0;entryY=0.5;entryDx=0;entryDy=0;" edge="1" parent="1" source="ixC7fo_xBta1fvAIzJk8-487" target="ixC7fo_xBta1fvAIzJk8-497">
          <mxGeometry relative="1" as="geometry" />
        </mxCell>
        <mxCell id="ixC7fo_xBta1fvAIzJk8-516" value="NO" style="edgeLabel;html=1;align=center;verticalAlign=middle;resizable=0;points=[];labelBorderColor=default;" vertex="1" connectable="0" parent="ixC7fo_xBta1fvAIzJk8-499">
          <mxGeometry x="-0.1385" y="-2" relative="1" as="geometry">
            <mxPoint as="offset" />
          </mxGeometry>
        </mxCell>
        <mxCell id="ixC7fo_xBta1fvAIzJk8-487" value="If m-th column&lt;div&gt;pin&amp;nbsp;&lt;span style=&quot;background-color: initial;&quot;&gt;is HIGH?&lt;/span&gt;&lt;/div&gt;" style="rhombus;whiteSpace=wrap;html=1;" vertex="1" parent="1">
          <mxGeometry x="2106.87" y="1350.0100000000002" width="120" height="80" as="geometry" />
        </mxCell>
        <mxCell id="ixC7fo_xBta1fvAIzJk8-489" value="Return n-th row and&lt;br&gt;m-th column from key map" style="shape=parallelogram;perimeter=parallelogramPerimeter;whiteSpace=wrap;html=1;fixedSize=1;" vertex="1" parent="1">
          <mxGeometry x="2080" y="1470.0100000000002" width="173.75" height="60" as="geometry" />
        </mxCell>
        <mxCell id="ixC7fo_xBta1fvAIzJk8-494" value="" style="edgeStyle=orthogonalEdgeStyle;rounded=0;orthogonalLoop=1;jettySize=auto;html=1;" edge="1" parent="1" source="ixC7fo_xBta1fvAIzJk8-492" target="ixC7fo_xBta1fvAIzJk8-481">
          <mxGeometry relative="1" as="geometry" />
        </mxCell>
        <mxCell id="ixC7fo_xBta1fvAIzJk8-492" value="k_row = 0" style="whiteSpace=wrap;html=1;" vertex="1" parent="1">
          <mxGeometry x="2106.87" y="550" width="120" height="60" as="geometry" />
        </mxCell>
        <mxCell id="ixC7fo_xBta1fvAIzJk8-496" style="edgeStyle=orthogonalEdgeStyle;rounded=0;orthogonalLoop=1;jettySize=auto;html=1;exitX=0.5;exitY=0;exitDx=0;exitDy=0;entryX=0.5;entryY=0;entryDx=0;entryDy=0;" edge="1" parent="1" source="ixC7fo_xBta1fvAIzJk8-507" target="ixC7fo_xBta1fvAIzJk8-481">
          <mxGeometry relative="1" as="geometry">
            <Array as="points">
              <mxPoint x="2166.87" y="620" />
            </Array>
          </mxGeometry>
        </mxCell>
        <mxCell id="ixC7fo_xBta1fvAIzJk8-513" value="YES" style="edgeLabel;html=1;align=center;verticalAlign=middle;resizable=0;points=[];labelBorderColor=default;" vertex="1" connectable="0" parent="ixC7fo_xBta1fvAIzJk8-496">
          <mxGeometry x="0.7347" y="-1" relative="1" as="geometry">
            <mxPoint as="offset" />
          </mxGeometry>
        </mxCell>
        <mxCell id="ixC7fo_xBta1fvAIzJk8-495" value="Increment&lt;div&gt;k_row by 1&lt;/div&gt;" style="whiteSpace=wrap;html=1;" vertex="1" parent="1">
          <mxGeometry x="2250" y="690" width="120" height="60" as="geometry" />
        </mxCell>
        <mxCell id="ixC7fo_xBta1fvAIzJk8-497" value="Increment&lt;div&gt;k_col by 1&lt;/div&gt;" style="whiteSpace=wrap;html=1;" vertex="1" parent="1">
          <mxGeometry x="2276.87" y="1360.0100000000002" width="120" height="60" as="geometry" />
        </mxCell>
        <mxCell id="ixC7fo_xBta1fvAIzJk8-501" value="k_col = 0" style="whiteSpace=wrap;html=1;" vertex="1" parent="1">
          <mxGeometry x="2106.87" y="990" width="120" height="60" as="geometry" />
        </mxCell>
        <mxCell id="ixC7fo_xBta1fvAIzJk8-505" value="" style="edgeStyle=orthogonalEdgeStyle;rounded=0;orthogonalLoop=1;jettySize=auto;html=1;" edge="1" parent="1" source="ixC7fo_xBta1fvAIzJk8-501" target="ixC7fo_xBta1fvAIzJk8-504">
          <mxGeometry relative="1" as="geometry">
            <mxPoint x="2166.87" y="1060" as="sourcePoint" />
            <mxPoint x="2166.87" y="1220" as="targetPoint" />
          </mxGeometry>
        </mxCell>
        <mxCell id="ixC7fo_xBta1fvAIzJk8-506" value="" style="edgeStyle=orthogonalEdgeStyle;rounded=0;orthogonalLoop=1;jettySize=auto;html=1;exitX=0.5;exitY=0;exitDx=0;exitDy=0;entryX=0.5;entryY=0;entryDx=0;entryDy=0;" edge="1" parent="1" source="ixC7fo_xBta1fvAIzJk8-497" target="ixC7fo_xBta1fvAIzJk8-504">
          <mxGeometry relative="1" as="geometry">
            <mxPoint x="2336.87" y="1360" as="sourcePoint" />
            <mxPoint x="2166.87" y="1250" as="targetPoint" />
            <Array as="points">
              <mxPoint x="2337" y="1100" />
              <mxPoint x="2167" y="1100" />
            </Array>
          </mxGeometry>
        </mxCell>
        <mxCell id="ixC7fo_xBta1fvAIzJk8-509" style="edgeStyle=orthogonalEdgeStyle;rounded=0;orthogonalLoop=1;jettySize=auto;html=1;exitX=1;exitY=0.5;exitDx=0;exitDy=0;entryX=0.5;entryY=1;entryDx=0;entryDy=0;" edge="1" parent="1" source="ixC7fo_xBta1fvAIzJk8-504" target="ixC7fo_xBta1fvAIzJk8-495">
          <mxGeometry relative="1" as="geometry" />
        </mxCell>
        <mxCell id="ixC7fo_xBta1fvAIzJk8-512" value="NO" style="edgeLabel;html=1;align=center;verticalAlign=middle;resizable=0;points=[];labelBorderColor=default;" vertex="1" connectable="0" parent="ixC7fo_xBta1fvAIzJk8-509">
          <mxGeometry x="-0.8435" y="-1" relative="1" as="geometry">
            <mxPoint as="offset" />
          </mxGeometry>
        </mxCell>
        <mxCell id="ixC7fo_xBta1fvAIzJk8-514" value="" style="edgeStyle=orthogonalEdgeStyle;rounded=0;orthogonalLoop=1;jettySize=auto;html=1;" edge="1" parent="1" source="ixC7fo_xBta1fvAIzJk8-504" target="ixC7fo_xBta1fvAIzJk8-485">
          <mxGeometry relative="1" as="geometry" />
        </mxCell>
        <mxCell id="ixC7fo_xBta1fvAIzJk8-515" value="YES" style="edgeLabel;html=1;align=center;verticalAlign=middle;resizable=0;points=[];labelBorderColor=default;" vertex="1" connectable="0" parent="ixC7fo_xBta1fvAIzJk8-514">
          <mxGeometry x="-0.141" y="-2" relative="1" as="geometry">
            <mxPoint as="offset" />
          </mxGeometry>
        </mxCell>
        <mxCell id="ixC7fo_xBta1fvAIzJk8-504" value="If k_col &amp;lt;= 3" style="rhombus;whiteSpace=wrap;html=1;" vertex="1" parent="1">
          <mxGeometry x="2106.87" y="1130" width="120" height="80" as="geometry" />
        </mxCell>
        <mxCell id="ixC7fo_xBta1fvAIzJk8-508" value="" style="edgeStyle=orthogonalEdgeStyle;rounded=0;orthogonalLoop=1;jettySize=auto;html=1;exitX=0.5;exitY=0;exitDx=0;exitDy=0;entryX=0.5;entryY=0;entryDx=0;entryDy=0;" edge="1" parent="1" source="ixC7fo_xBta1fvAIzJk8-495" target="ixC7fo_xBta1fvAIzJk8-507">
          <mxGeometry relative="1" as="geometry">
            <mxPoint x="2336.87" y="690" as="sourcePoint" />
            <mxPoint x="2166.87" y="720" as="targetPoint" />
            <Array as="points">
              <mxPoint x="2310" y="630" />
              <mxPoint x="2167" y="630" />
            </Array>
          </mxGeometry>
        </mxCell>
        <mxCell id="ixC7fo_xBta1fvAIzJk8-510" style="edgeStyle=orthogonalEdgeStyle;rounded=0;orthogonalLoop=1;jettySize=auto;html=1;exitX=0;exitY=0.5;exitDx=0;exitDy=0;entryX=0.5;entryY=0;entryDx=0;entryDy=0;" edge="1" parent="1" source="ixC7fo_xBta1fvAIzJk8-507" target="ixC7fo_xBta1fvAIzJk8-492">
          <mxGeometry relative="1" as="geometry">
            <Array as="points">
              <mxPoint x="2070" y="690" />
              <mxPoint x="2070" y="530" />
              <mxPoint x="2167" y="530" />
            </Array>
          </mxGeometry>
        </mxCell>
        <mxCell id="ixC7fo_xBta1fvAIzJk8-511" value="NO" style="edgeLabel;html=1;align=center;verticalAlign=middle;resizable=0;points=[];labelBorderColor=default;" vertex="1" connectable="0" parent="ixC7fo_xBta1fvAIzJk8-510">
          <mxGeometry x="-0.8727" y="1" relative="1" as="geometry">
            <mxPoint as="offset" />
          </mxGeometry>
        </mxCell>
        <mxCell id="ixC7fo_xBta1fvAIzJk8-507" value="If k_row &amp;lt;= 3" style="rhombus;whiteSpace=wrap;html=1;" vertex="1" parent="1">
          <mxGeometry x="2106.87" y="650" width="120" height="80" as="geometry" />
        </mxCell>
        <mxCell id="ixC7fo_xBta1fvAIzJk8-523" value="" style="edgeStyle=orthogonalEdgeStyle;rounded=0;orthogonalLoop=1;jettySize=auto;html=1;" edge="1" parent="1" source="ixC7fo_xBta1fvAIzJk8-518" target="ixC7fo_xBta1fvAIzJk8-520">
          <mxGeometry relative="1" as="geometry" />
        </mxCell>
        <mxCell id="ixC7fo_xBta1fvAIzJk8-518" value="Setup LCD Pins" style="shape=process;whiteSpace=wrap;html=1;backgroundOutline=1;" vertex="1" parent="1">
          <mxGeometry x="2520" y="200" width="120" height="60" as="geometry" />
        </mxCell>
        <mxCell id="ixC7fo_xBta1fvAIzJk8-524" value="" style="edgeStyle=orthogonalEdgeStyle;rounded=0;orthogonalLoop=1;jettySize=auto;html=1;" edge="1" parent="1" source="ixC7fo_xBta1fvAIzJk8-520" target="ixC7fo_xBta1fvAIzJk8-521">
          <mxGeometry relative="1" as="geometry" />
        </mxCell>
        <mxCell id="ixC7fo_xBta1fvAIzJk8-520" value="Send command to set cursor to beginning of display and unshifts display if set before" style="rounded=0;whiteSpace=wrap;html=1;" vertex="1" parent="1">
          <mxGeometry x="2520" y="310" width="120" height="60" as="geometry" />
        </mxCell>
        <mxCell id="ixC7fo_xBta1fvAIzJk8-525" value="" style="edgeStyle=orthogonalEdgeStyle;rounded=0;orthogonalLoop=1;jettySize=auto;html=1;" edge="1" parent="1" source="ixC7fo_xBta1fvAIzJk8-521" target="ixC7fo_xBta1fvAIzJk8-522">
          <mxGeometry relative="1" as="geometry" />
        </mxCell>
        <mxCell id="ixC7fo_xBta1fvAIzJk8-521" value="Send command to set LCD to operate in 4-bit mode, using 2 lines and 5 x 8 fonts" style="whiteSpace=wrap;html=1;" vertex="1" parent="1">
          <mxGeometry x="2520" y="415" width="120" height="60" as="geometry" />
        </mxCell>
        <mxCell id="ixC7fo_xBta1fvAIzJk8-529" value="" style="edgeStyle=orthogonalEdgeStyle;rounded=0;orthogonalLoop=1;jettySize=auto;html=1;" edge="1" parent="1" source="ixC7fo_xBta1fvAIzJk8-522" target="ixC7fo_xBta1fvAIzJk8-526">
          <mxGeometry relative="1" as="geometry" />
        </mxCell>
        <mxCell id="ixC7fo_xBta1fvAIzJk8-522" value="Send command to set cursor to increment automatically after each character insert" style="whiteSpace=wrap;html=1;" vertex="1" parent="1">
          <mxGeometry x="2520" y="520" width="120" height="60" as="geometry" />
        </mxCell>
        <mxCell id="ixC7fo_xBta1fvAIzJk8-528" value="" style="edgeStyle=orthogonalEdgeStyle;rounded=0;orthogonalLoop=1;jettySize=auto;html=1;" edge="1" parent="1" source="ixC7fo_xBta1fvAIzJk8-526" target="ixC7fo_xBta1fvAIzJk8-527">
          <mxGeometry relative="1" as="geometry" />
        </mxCell>
        <mxCell id="ixC7fo_xBta1fvAIzJk8-526" value="Send command to turn on the display &amp;amp; cursor and set cursor to blinking" style="whiteSpace=wrap;html=1;" vertex="1" parent="1">
          <mxGeometry x="2520" y="625" width="120" height="60" as="geometry" />
        </mxCell>
        <mxCell id="ixC7fo_xBta1fvAIzJk8-527" value="Send command to clear the Screen" style="whiteSpace=wrap;html=1;" vertex="1" parent="1">
          <mxGeometry x="2520" y="730" width="120" height="60" as="geometry" />
        </mxCell>
        <mxCell id="ixC7fo_xBta1fvAIzJk8-538" value="" style="edgeStyle=orthogonalEdgeStyle;rounded=0;orthogonalLoop=1;jettySize=auto;html=1;" edge="1" parent="1" source="ixC7fo_xBta1fvAIzJk8-530" target="ixC7fo_xBta1fvAIzJk8-537">
          <mxGeometry relative="1" as="geometry" />
        </mxCell>
        <mxCell id="ixC7fo_xBta1fvAIzJk8-530" value="Set data packet to include &#39;data&#39; as upper 8 bits" style="rounded=0;whiteSpace=wrap;html=1;" vertex="1" parent="1">
          <mxGeometry x="3000" y="440" width="120" height="60" as="geometry" />
        </mxCell>
        <mxCell id="ixC7fo_xBta1fvAIzJk8-534" value="" style="edgeStyle=orthogonalEdgeStyle;rounded=0;orthogonalLoop=1;jettySize=auto;html=1;" edge="1" parent="1" source="ixC7fo_xBta1fvAIzJk8-531" target="ixC7fo_xBta1fvAIzJk8-532">
          <mxGeometry relative="1" as="geometry" />
        </mxCell>
        <mxCell id="ixC7fo_xBta1fvAIzJk8-531" value="data&lt;div&gt;(unsigned char)&lt;/div&gt;" style="shape=parallelogram;perimeter=parallelogramPerimeter;whiteSpace=wrap;html=1;fixedSize=1;" vertex="1" parent="1">
          <mxGeometry x="3000" y="200" width="120" height="60" as="geometry" />
        </mxCell>
        <mxCell id="ixC7fo_xBta1fvAIzJk8-535" value="" style="edgeStyle=orthogonalEdgeStyle;rounded=0;orthogonalLoop=1;jettySize=auto;html=1;" edge="1" parent="1" source="ixC7fo_xBta1fvAIzJk8-532" target="ixC7fo_xBta1fvAIzJk8-530">
          <mxGeometry relative="1" as="geometry" />
        </mxCell>
        <mxCell id="ixC7fo_xBta1fvAIzJk8-532" value="control&lt;div&gt;(unsigned char)&lt;/div&gt;" style="shape=parallelogram;perimeter=parallelogramPerimeter;whiteSpace=wrap;html=1;fixedSize=1;" vertex="1" parent="1">
          <mxGeometry x="3000" y="310" width="120" height="60" as="geometry" />
        </mxCell>
        <mxCell id="ixC7fo_xBta1fvAIzJk8-541" value="" style="edgeStyle=orthogonalEdgeStyle;rounded=0;orthogonalLoop=1;jettySize=auto;html=1;" edge="1" parent="1" source="ixC7fo_xBta1fvAIzJk8-537" target="ixC7fo_xBta1fvAIzJk8-539">
          <mxGeometry relative="1" as="geometry" />
        </mxCell>
        <mxCell id="ixC7fo_xBta1fvAIzJk8-537" value="Set data packet to include &#39;control&#39; as lower 8 bits" style="rounded=0;whiteSpace=wrap;html=1;" vertex="1" parent="1">
          <mxGeometry x="3000" y="550" width="120" height="60" as="geometry" />
        </mxCell>
        <mxCell id="ixC7fo_xBta1fvAIzJk8-542" value="" style="edgeStyle=orthogonalEdgeStyle;rounded=0;orthogonalLoop=1;jettySize=auto;html=1;" edge="1" parent="1" source="ixC7fo_xBta1fvAIzJk8-539" target="ixC7fo_xBta1fvAIzJk8-540">
          <mxGeometry relative="1" as="geometry" />
        </mxCell>
        <mxCell id="ixC7fo_xBta1fvAIzJk8-539" value="Send data packet to LCD pins, and set enable pin to HIGH" style="rounded=0;whiteSpace=wrap;html=1;" vertex="1" parent="1">
          <mxGeometry x="3000" y="660" width="120" height="60" as="geometry" />
        </mxCell>
        <mxCell id="ixC7fo_xBta1fvAIzJk8-545" value="" style="edgeStyle=orthogonalEdgeStyle;rounded=0;orthogonalLoop=1;jettySize=auto;html=1;" edge="1" parent="1" source="ixC7fo_xBta1fvAIzJk8-540" target="ixC7fo_xBta1fvAIzJk8-544">
          <mxGeometry relative="1" as="geometry" />
        </mxCell>
        <mxCell id="ixC7fo_xBta1fvAIzJk8-540" value="Delay for 3 us" style="rounded=0;whiteSpace=wrap;html=1;" vertex="1" parent="1">
          <mxGeometry x="3000" y="775" width="120" height="60" as="geometry" />
        </mxCell>
        <mxCell id="ixC7fo_xBta1fvAIzJk8-547" value="" style="edgeStyle=orthogonalEdgeStyle;rounded=0;orthogonalLoop=1;jettySize=auto;html=1;" edge="1" parent="1" source="ixC7fo_xBta1fvAIzJk8-544" target="ixC7fo_xBta1fvAIzJk8-546">
          <mxGeometry relative="1" as="geometry" />
        </mxCell>
        <mxCell id="ixC7fo_xBta1fvAIzJk8-544" value="Set enable pin to LOW" style="rounded=0;whiteSpace=wrap;html=1;" vertex="1" parent="1">
          <mxGeometry x="3000" y="880" width="120" height="60" as="geometry" />
        </mxCell>
        <mxCell id="ixC7fo_xBta1fvAIzJk8-546" value="END" style="ellipse;whiteSpace=wrap;html=1;" vertex="1" parent="1">
          <mxGeometry x="3000" y="980" width="120" height="80" as="geometry" />
        </mxCell>
        <mxCell id="ixC7fo_xBta1fvAIzJk8-548" value="" style="edgeStyle=orthogonalEdgeStyle;rounded=0;orthogonalLoop=1;jettySize=auto;html=1;" edge="1" parent="1" source="ixC7fo_xBta1fvAIzJk8-549" target="ixC7fo_xBta1fvAIzJk8-550">
          <mxGeometry relative="1" as="geometry" />
        </mxCell>
        <mxCell id="ixC7fo_xBta1fvAIzJk8-549" value="data&lt;div&gt;(unsigned char)&lt;/div&gt;" style="shape=parallelogram;perimeter=parallelogramPerimeter;whiteSpace=wrap;html=1;fixedSize=1;" vertex="1" parent="1">
          <mxGeometry x="3240" y="200" width="120" height="60" as="geometry" />
        </mxCell>
        <mxCell id="ixC7fo_xBta1fvAIzJk8-555" value="" style="edgeStyle=orthogonalEdgeStyle;rounded=0;orthogonalLoop=1;jettySize=auto;html=1;" edge="1" parent="1" source="ixC7fo_xBta1fvAIzJk8-550" target="ixC7fo_xBta1fvAIzJk8-554">
          <mxGeometry relative="1" as="geometry" />
        </mxCell>
        <mxCell id="ixC7fo_xBta1fvAIzJk8-550" value="control&lt;div&gt;(unsigned char)&lt;/div&gt;" style="shape=parallelogram;perimeter=parallelogramPerimeter;whiteSpace=wrap;html=1;fixedSize=1;" vertex="1" parent="1">
          <mxGeometry x="3240" y="310" width="120" height="60" as="geometry" />
        </mxCell>
        <mxCell id="ixC7fo_xBta1fvAIzJk8-557" value="" style="edgeStyle=orthogonalEdgeStyle;rounded=0;orthogonalLoop=1;jettySize=auto;html=1;" edge="1" parent="1" source="ixC7fo_xBta1fvAIzJk8-554" target="ixC7fo_xBta1fvAIzJk8-556">
          <mxGeometry relative="1" as="geometry" />
        </mxCell>
        <mxCell id="ixC7fo_xBta1fvAIzJk8-554" value="Write upper 4 bits (data) to LCD&amp;nbsp;&lt;span style=&quot;background-color: initial;&quot;&gt;in 4-bit mode&lt;/span&gt;" style="shape=process;whiteSpace=wrap;html=1;backgroundOutline=1;" vertex="1" parent="1">
          <mxGeometry x="3240" y="440" width="120" height="60" as="geometry" />
        </mxCell>
        <mxCell id="ixC7fo_xBta1fvAIzJk8-559" value="" style="edgeStyle=orthogonalEdgeStyle;rounded=0;orthogonalLoop=1;jettySize=auto;html=1;" edge="1" parent="1" source="ixC7fo_xBta1fvAIzJk8-556" target="ixC7fo_xBta1fvAIzJk8-558">
          <mxGeometry relative="1" as="geometry" />
        </mxCell>
        <mxCell id="ixC7fo_xBta1fvAIzJk8-556" value="Write lower 4 bits (data) to LCD&amp;nbsp;&lt;span style=&quot;background-color: initial;&quot;&gt;in 4-bit mode&lt;/span&gt;" style="shape=process;whiteSpace=wrap;html=1;backgroundOutline=1;" vertex="1" parent="1">
          <mxGeometry x="3240" y="550" width="120" height="60" as="geometry" />
        </mxCell>
        <mxCell id="ixC7fo_xBta1fvAIzJk8-558" value="END" style="ellipse;whiteSpace=wrap;html=1;" vertex="1" parent="1">
          <mxGeometry x="3240" y="680" width="120" height="80" as="geometry" />
        </mxCell>
        <mxCell id="ixC7fo_xBta1fvAIzJk8-581" value="" style="edgeStyle=orthogonalEdgeStyle;rounded=0;orthogonalLoop=1;jettySize=auto;html=1;" edge="1" parent="1" source="ixC7fo_xBta1fvAIzJk8-560" target="ixC7fo_xBta1fvAIzJk8-574">
          <mxGeometry relative="1" as="geometry" />
        </mxCell>
        <mxCell id="ixC7fo_xBta1fvAIzJk8-560" value="Send command&amp;nbsp; to LCD pins&amp;nbsp;&lt;span style=&quot;background-color: initial;&quot;&gt;in 4-bit mode&lt;/span&gt;" style="shape=process;whiteSpace=wrap;html=1;backgroundOutline=1;" vertex="1" parent="1">
          <mxGeometry x="3480" y="310" width="120" height="60" as="geometry" />
        </mxCell>
        <mxCell id="ixC7fo_xBta1fvAIzJk8-564" value="" style="edgeStyle=orthogonalEdgeStyle;rounded=0;orthogonalLoop=1;jettySize=auto;html=1;" edge="1" parent="1" source="ixC7fo_xBta1fvAIzJk8-562" target="ixC7fo_xBta1fvAIzJk8-560">
          <mxGeometry relative="1" as="geometry" />
        </mxCell>
        <mxCell id="ixC7fo_xBta1fvAIzJk8-562" value="command&lt;div&gt;(unsigned char)&lt;/div&gt;" style="shape=parallelogram;perimeter=parallelogramPerimeter;whiteSpace=wrap;html=1;fixedSize=1;" vertex="1" parent="1">
          <mxGeometry x="3480" y="195" width="120" height="60" as="geometry" />
        </mxCell>
        <mxCell id="ixC7fo_xBta1fvAIzJk8-565" value="END" style="ellipse;whiteSpace=wrap;html=1;" vertex="1" parent="1">
          <mxGeometry x="3480" y="680" width="120" height="80" as="geometry" />
        </mxCell>
        <mxCell id="ixC7fo_xBta1fvAIzJk8-573" value="" style="edgeStyle=orthogonalEdgeStyle;rounded=0;orthogonalLoop=1;jettySize=auto;html=1;" edge="1" parent="1" source="ixC7fo_xBta1fvAIzJk8-566" target="ixC7fo_xBta1fvAIzJk8-572">
          <mxGeometry relative="1" as="geometry" />
        </mxCell>
        <mxCell id="ixC7fo_xBta1fvAIzJk8-566" value="Delay for 3 us" style="rounded=0;whiteSpace=wrap;html=1;" vertex="1" parent="1">
          <mxGeometry x="3720" y="440" width="120" height="60" as="geometry" />
        </mxCell>
        <mxCell id="ixC7fo_xBta1fvAIzJk8-570" value="" style="edgeStyle=orthogonalEdgeStyle;rounded=0;orthogonalLoop=1;jettySize=auto;html=1;" edge="1" parent="1" source="ixC7fo_xBta1fvAIzJk8-567" target="ixC7fo_xBta1fvAIzJk8-569">
          <mxGeometry relative="1" as="geometry" />
        </mxCell>
        <mxCell id="ixC7fo_xBta1fvAIzJk8-567" value="data&lt;div&gt;(unsigned char)&lt;/div&gt;" style="shape=parallelogram;perimeter=parallelogramPerimeter;whiteSpace=wrap;html=1;fixedSize=1;" vertex="1" parent="1">
          <mxGeometry x="3720" y="195" width="120" height="60" as="geometry" />
        </mxCell>
        <mxCell id="ixC7fo_xBta1fvAIzJk8-571" value="" style="edgeStyle=orthogonalEdgeStyle;rounded=0;orthogonalLoop=1;jettySize=auto;html=1;" edge="1" parent="1" source="ixC7fo_xBta1fvAIzJk8-569" target="ixC7fo_xBta1fvAIzJk8-566">
          <mxGeometry relative="1" as="geometry" />
        </mxCell>
        <mxCell id="ixC7fo_xBta1fvAIzJk8-569" value="Send datato LCD pins&amp;nbsp;&lt;span style=&quot;background-color: initial;&quot;&gt;in 4-bit mode&lt;/span&gt;" style="shape=process;whiteSpace=wrap;html=1;backgroundOutline=1;" vertex="1" parent="1">
          <mxGeometry x="3720" y="310" width="120" height="60" as="geometry" />
        </mxCell>
        <mxCell id="ixC7fo_xBta1fvAIzJk8-572" value="END" style="ellipse;whiteSpace=wrap;html=1;" vertex="1" parent="1">
          <mxGeometry x="3720" y="550" width="120" height="80" as="geometry" />
        </mxCell>
        <mxCell id="ixC7fo_xBta1fvAIzJk8-577" style="edgeStyle=orthogonalEdgeStyle;rounded=0;orthogonalLoop=1;jettySize=auto;html=1;exitX=0;exitY=0.5;exitDx=0;exitDy=0;entryX=0.5;entryY=0;entryDx=0;entryDy=0;" edge="1" parent="1" source="ixC7fo_xBta1fvAIzJk8-574" target="ixC7fo_xBta1fvAIzJk8-575">
          <mxGeometry relative="1" as="geometry" />
        </mxCell>
        <mxCell id="ixC7fo_xBta1fvAIzJk8-582" value="YES" style="edgeLabel;html=1;align=center;verticalAlign=middle;resizable=0;points=[];labelBorderColor=default;" vertex="1" connectable="0" parent="ixC7fo_xBta1fvAIzJk8-577">
          <mxGeometry x="0.2747" relative="1" as="geometry">
            <mxPoint as="offset" />
          </mxGeometry>
        </mxCell>
        <mxCell id="ixC7fo_xBta1fvAIzJk8-578" style="edgeStyle=orthogonalEdgeStyle;rounded=0;orthogonalLoop=1;jettySize=auto;html=1;exitX=1;exitY=0.5;exitDx=0;exitDy=0;entryX=0.5;entryY=0;entryDx=0;entryDy=0;" edge="1" parent="1" source="ixC7fo_xBta1fvAIzJk8-574" target="ixC7fo_xBta1fvAIzJk8-576">
          <mxGeometry relative="1" as="geometry" />
        </mxCell>
        <mxCell id="ixC7fo_xBta1fvAIzJk8-583" value="NO" style="edgeLabel;html=1;align=center;verticalAlign=middle;resizable=0;points=[];labelBorderColor=default;" vertex="1" connectable="0" parent="ixC7fo_xBta1fvAIzJk8-578">
          <mxGeometry x="0.2141" y="1" relative="1" as="geometry">
            <mxPoint x="-1" y="3" as="offset" />
          </mxGeometry>
        </mxCell>
        <mxCell id="ixC7fo_xBta1fvAIzJk8-574" value="If command &amp;lt; 4?" style="rhombus;whiteSpace=wrap;html=1;" vertex="1" parent="1">
          <mxGeometry x="3480" y="420" width="120" height="80" as="geometry" />
        </mxCell>
        <mxCell id="ixC7fo_xBta1fvAIzJk8-579" style="edgeStyle=orthogonalEdgeStyle;rounded=0;orthogonalLoop=1;jettySize=auto;html=1;exitX=0.5;exitY=1;exitDx=0;exitDy=0;entryX=0.5;entryY=0;entryDx=0;entryDy=0;" edge="1" parent="1" source="ixC7fo_xBta1fvAIzJk8-575" target="ixC7fo_xBta1fvAIzJk8-565">
          <mxGeometry relative="1" as="geometry" />
        </mxCell>
        <mxCell id="ixC7fo_xBta1fvAIzJk8-575" value="Delay for 2 ms" style="rounded=0;whiteSpace=wrap;html=1;" vertex="1" parent="1">
          <mxGeometry x="3400" y="550" width="120" height="60" as="geometry" />
        </mxCell>
        <mxCell id="ixC7fo_xBta1fvAIzJk8-580" style="edgeStyle=orthogonalEdgeStyle;rounded=0;orthogonalLoop=1;jettySize=auto;html=1;exitX=0.5;exitY=1;exitDx=0;exitDy=0;entryX=0.5;entryY=0;entryDx=0;entryDy=0;" edge="1" parent="1" source="ixC7fo_xBta1fvAIzJk8-576" target="ixC7fo_xBta1fvAIzJk8-565">
          <mxGeometry relative="1" as="geometry">
            <mxPoint x="3540" y="650" as="targetPoint" />
          </mxGeometry>
        </mxCell>
        <mxCell id="ixC7fo_xBta1fvAIzJk8-576" value="Delay for 37 us" style="rounded=0;whiteSpace=wrap;html=1;" vertex="1" parent="1">
          <mxGeometry x="3560" y="550" width="120" height="60" as="geometry" />
        </mxCell>
        <mxCell id="ixC7fo_xBta1fvAIzJk8-586" value="&lt;h1 style=&quot;margin-top: 0px; line-height: 120%;&quot;&gt;I/O Setup for Task 2&lt;/h1&gt;&lt;p style=&quot;line-height: 100%; font-size: 20px;&quot;&gt;&lt;font style=&quot;font-size: 20px;&quot;&gt;&lt;b style=&quot;&quot;&gt;LCD Control Pins&lt;/b&gt;:&lt;/font&gt;&lt;/p&gt;&lt;p style=&quot;line-height: 100%; font-size: 20px;&quot;&gt;&lt;font style=&quot;font-size: 20px;&quot;&gt;- RS pin: PB0&lt;/font&gt;&lt;/p&gt;&lt;p style=&quot;line-height: 100%; font-size: 20px;&quot;&gt;&lt;font style=&quot;font-size: 20px;&quot;&gt;- RW pin: PB1&lt;/font&gt;&lt;/p&gt;&lt;p style=&quot;line-height: 100%; font-size: 20px;&quot;&gt;&lt;font style=&quot;font-size: 20px;&quot;&gt;- EN pin: PB2&lt;/font&gt;&lt;/p&gt;&lt;p style=&quot;line-height: 100%; font-size: 20px;&quot;&gt;&lt;font style=&quot;font-size: 20px;&quot;&gt;&lt;b&gt;LCD Data Pins&lt;/b&gt;:&lt;/font&gt;&lt;/p&gt;&lt;p style=&quot;line-height: 100%; font-size: 20px;&quot;&gt;&lt;font style=&quot;font-size: 20px;&quot;&gt;- Data 0 pin: PB4&lt;/font&gt;&lt;/p&gt;&lt;p style=&quot;line-height: 100%; font-size: 20px;&quot;&gt;&lt;font style=&quot;font-size: 20px;&quot;&gt;- Data 1 pin: PB5&lt;/font&gt;&lt;/p&gt;&lt;p style=&quot;line-height: 100%; font-size: 20px;&quot;&gt;&lt;font style=&quot;font-size: 20px;&quot;&gt;- Data 2 pin: PB6&lt;/font&gt;&lt;/p&gt;&lt;p style=&quot;line-height: 100%; font-size: 20px;&quot;&gt;&lt;font style=&quot;font-size: 20px;&quot;&gt;- Data 3 pin: PB7&lt;/font&gt;&lt;/p&gt;&lt;p style=&quot;line-height: 100%; font-size: 20px;&quot;&gt;&lt;font style=&quot;font-size: 20px;&quot;&gt;&lt;b&gt;Keypad row pins&lt;/b&gt;:&lt;/font&gt;&lt;/p&gt;&lt;p style=&quot;line-height: 100%; font-size: 20px;&quot;&gt;&lt;font style=&quot;font-size: 20px;&quot;&gt;- Row 1 pin: PE0&lt;/font&gt;&lt;/p&gt;&lt;p style=&quot;line-height: 100%; font-size: 20px;&quot;&gt;&lt;font style=&quot;font-size: 20px;&quot;&gt;- Row 2 pin: PE1&lt;/font&gt;&lt;/p&gt;&lt;p style=&quot;line-height: 100%; font-size: 20px;&quot;&gt;&lt;font style=&quot;font-size: 20px;&quot;&gt;- Row 3 pin: PE2&lt;/font&gt;&lt;/p&gt;&lt;p style=&quot;line-height: 100%; font-size: 20px;&quot;&gt;&lt;font style=&quot;font-size: 20px;&quot;&gt;- Row 4 pin: PE3&lt;/font&gt;&lt;/p&gt;&lt;p style=&quot;line-height: 100%; font-size: 20px;&quot;&gt;&lt;font style=&quot;font-size: 20px;&quot;&gt;&lt;b&gt;Keypad columns pins&lt;/b&gt;:&lt;/font&gt;&lt;/p&gt;&lt;p style=&quot;line-height: 100%; font-size: 20px;&quot;&gt;&lt;font style=&quot;font-size: 20px;&quot;&gt;- Column 1 pin: PC4&lt;/font&gt;&lt;/p&gt;&lt;p style=&quot;line-height: 100%; font-size: 20px;&quot;&gt;&lt;font style=&quot;font-size: 20px;&quot;&gt;- Column 2 pin: PC5&lt;/font&gt;&lt;/p&gt;&lt;p style=&quot;line-height: 100%; font-size: 20px;&quot;&gt;&lt;font style=&quot;font-size: 20px;&quot;&gt;- Column 3 pin: PC6&lt;/font&gt;&lt;/p&gt;&lt;p style=&quot;line-height: 100%; font-size: 20px;&quot;&gt;&lt;font style=&quot;font-size: 20px;&quot;&gt;- Column 4 pin: PC7&lt;/font&gt;&lt;/p&gt;" style="text;html=1;whiteSpace=wrap;overflow=hidden;rounded=0;fillColor=#f5f5f5;fontColor=#333333;strokeColor=#666666;spacingLeft=0;spacingBottom=0;spacing=8;" vertex="1" parent="1">
          <mxGeometry x="3920" y="460" width="240" height="810" as="geometry" />
        </mxCell>
        <mxCell id="ixC7fo_xBta1fvAIzJk8-588" value="&lt;h1 style=&quot;margin-top: 0px; line-height: 120%;&quot;&gt;I/O Setup for Task 1&lt;/h1&gt;&lt;p style=&quot;line-height: 100%; font-size: 20px;&quot;&gt;&lt;font style=&quot;font-size: 20px;&quot;&gt;&lt;b style=&quot;&quot;&gt;LCD Control Pins&lt;/b&gt;:&lt;/font&gt;&lt;/p&gt;&lt;p style=&quot;line-height: 100%; font-size: 20px;&quot;&gt;&lt;font style=&quot;font-size: 20px;&quot;&gt;- RS pin: PB0&lt;/font&gt;&lt;/p&gt;&lt;p style=&quot;line-height: 100%; font-size: 20px;&quot;&gt;&lt;font style=&quot;font-size: 20px;&quot;&gt;- RW pin: PB1&lt;/font&gt;&lt;/p&gt;&lt;p style=&quot;line-height: 100%; font-size: 20px;&quot;&gt;&lt;font style=&quot;font-size: 20px;&quot;&gt;- EN pin: PB2&lt;/font&gt;&lt;/p&gt;&lt;p style=&quot;line-height: 100%; font-size: 20px;&quot;&gt;&lt;font style=&quot;font-size: 20px;&quot;&gt;&lt;b&gt;LCD Data Pins&lt;/b&gt;:&lt;/font&gt;&lt;/p&gt;&lt;p style=&quot;line-height: 100%; font-size: 20px;&quot;&gt;&lt;font style=&quot;font-size: 20px;&quot;&gt;- Data 0 pin: PB4&lt;/font&gt;&lt;/p&gt;&lt;p style=&quot;line-height: 100%; font-size: 20px;&quot;&gt;&lt;font style=&quot;font-size: 20px;&quot;&gt;- Data 1 pin: PB5&lt;/font&gt;&lt;/p&gt;&lt;p style=&quot;line-height: 100%; font-size: 20px;&quot;&gt;&lt;font style=&quot;font-size: 20px;&quot;&gt;- Data 2 pin: PB6&lt;/font&gt;&lt;/p&gt;&lt;p style=&quot;line-height: 100%; font-size: 20px;&quot;&gt;&lt;font style=&quot;font-size: 20px;&quot;&gt;- Data 3 pin: PB7&lt;/font&gt;&lt;/p&gt;" style="text;html=1;whiteSpace=wrap;overflow=hidden;rounded=0;fillColor=#f5f5f5;fontColor=#333333;strokeColor=#666666;spacingLeft=0;spacingBottom=0;spacing=8;" vertex="1" parent="1">
          <mxGeometry x="3920" y="10" width="240" height="410" as="geometry" />
        </mxCell>
      </root>
    </mxGraphModel>
  </diagram>
</mxfile>
